<svg id="Layer_1" data-name="Layer 1" xmlns="http://www.w3.org/2000/svg" viewBox="0 0 400 190"><defs><style>.cls-1{fill:#d7d7d7;}.cls-2{fill:#c4c4c4;}</style></defs><title>logo bank</title><path class="cls-1" d="M380,5a15,15,0,0,1,15,15V170a15,15,0,0,1-15,15H20A15,15,0,0,1,5,170V20A15,15,0,0,1,20,5H380m0-5H20A20.06,20.06,0,0,0,0,20V170a20.06,20.06,0,0,0,20,20H380a20.06,20.06,0,0,0,20-20V20A20.06,20.06,0,0,0,380,0Z"/><path class="cls-1" d="M261.92,118c-2.79-.32-6-.43-9-1.07-11.51-2.4-17.28-13.11-13.29-24.24,2.47-6.89,7.75-10.27,14.59-10.89a89.23,89.23,0,0,1,17.53.06c12.3,1.34,16.53,12.48,15,21.32-1.46,8.53-6.3,12.88-15.69,14.08C268.15,117.62,265.21,117.73,261.92,118Zm11.7-18.71c-.16-7.24-4.14-11.27-11-11.12s-10.7,4.32-10.56,11.33c.15,7.4,4,11.22,11.21,11.1C269.9,110.46,273.78,106.23,273.62,99.28Z"/><path class="cls-1" d="M162.09,117.46c-3.74,0-7.24.05-10.73-.06a2,2,0,0,1-1.46-1.22c-1.18-5.12-4.53-6.22-9.31-5.71a93.59,93.59,0,0,1-11.59.06c-1.27,0-2.14.37-2.4,1.59-1,4.72-4,6.14-8.56,5.38a39.23,39.23,0,0,0-6.07-.05c.45-1,.73-1.76,1.06-2.45,5.11-10.72,10.24-21.43,15.3-32.18A2.44,2.44,0,0,1,131,81.22c4.15.08,8.31,0,12.46.09a2.85,2.85,0,0,1,2.16,1.12c5.48,11.33,10.87,22.71,16.27,34.08A7.32,7.32,0,0,1,162.09,117.46ZM137.33,88.65l-6.33,14H143.7Z"/><path class="cls-1" d="M220.39,89V117.3h-12.7V89H191.57V81.26h44.95V89Z"/><path class="cls-1" d="M177.73,81.26v28.4h23.15v7.64h-36c0-.63-.11-1.25-.11-1.87,0-10.67.07-21.33,0-32,0-1.66.4-2.27,2.15-2.21C170.42,81.34,173.91,81.26,177.73,81.26Z"/><path class="cls-1" d="M297.1,132c-.79,1.22-1.62,2.42-2.51,3.61-9.48,12.67-22.07,21.3-36.35,27.61-18.16,8-38.12,12-60.42,11.92-21.79-.21-44.13-4.62-64.86-15.7-12.5-6.69-23.4-15.33-31.1-27.44Z"/><path class="cls-2" d="M296.91,66.77H102c.74-1.14,1.52-2.27,2.36-3.38,10-13.33,23.38-22.19,38.53-28.55,22.29-9.36,45.6-12.28,69.59-10.4a135.53,135.53,0,0,1,50.08,13.35c13.28,6.56,25,15.17,33.42,27.55C296.29,65.82,296.6,66.29,296.91,66.77Z"/></svg>