<?xml version="1.0" encoding="utf-8"?>
<!-- Generator: Adobe Illustrator 21.1.0, SVG Export Plug-In . SVG Version: 6.00 Build 0)  -->
<svg version="1.1" id="Layer_1" xmlns="http://www.w3.org/2000/svg" xmlns:xlink="http://www.w3.org/1999/xlink" x="0px" y="0px"
	 viewBox="0 0 400 190" style="enable-background:new 0 0 400 190;" xml:space="preserve">
<style type="text/css">
	.st0{fill:#D7D7D7;}
	.st1{fill:#9C9C9C;}
	.st2{fill:#253B80;}
	.st3{fill:#828282;}
</style>
<title>logo bank</title>
<path class="st0" d="M380,5c8.3,0,15,6.7,15,15v150c0,8.3-6.7,15-15,15H20c-8.3,0-15-6.7-15-15V20c0-8.3,6.7-15,15-15H380 M380,0H20
	C9,0,0,9,0,20v150c0,11,9,20,20,20h360c11,0,20-9,20-20V20C400,9,391,0,380,0z"/>
<path class="st1" d="M166.2,72.6h-16.8c-1.2,0-2.1,0.8-2.3,2l-6.8,43.2c-0.1,0.9,0.5,1.6,1.4,1.6h8c1.2,0,2.1-0.8,2.3-2l1.8-11.7
	c0.2-1.1,1.2-2,2.3-2h5.3c11.1,0,17.5-5.4,19.2-16c0.8-4.7,0-8.3-2.1-10.9C176.1,74.1,171.8,72.6,166.2,72.6z M168.1,88.4
	c-0.9,6-5.5,6-10,6h-2.5l1.8-11.3c0.1-0.7,0.7-1.2,1.4-1.2h1.2c3,0,5.9,0,7.4,1.7C168.2,84.7,168.5,86.3,168.1,88.4z"/>
<path class="st1" d="M216.5,88.2h-8.1c-0.7,0-1.3,0.5-1.4,1.2l-0.4,2.3l-0.6-0.8c-1.7-2.5-5.6-3.4-9.5-3.4c-8.9,0-16.5,6.8-18,16.2
	c-0.8,4.7,0.3,9.2,3,12.4c2.5,2.9,6,4.1,10.2,4.1c7.2,0,11.2-4.6,11.2-4.6l-0.4,2.2c-0.1,0.9,0.5,1.6,1.4,1.6h7.3
	c1.2,0,2.1-0.8,2.3-2l4.4-27.6C218.1,89,217.4,88.2,216.5,88.2z M205.3,103.9c-0.8,4.6-4.4,7.7-9.1,7.7c-2.3,0-4.2-0.8-5.4-2.2
	c-1.2-1.4-1.6-3.4-1.3-5.7c0.7-4.6,4.4-7.8,9-7.8c2.3,0,4.2,0.8,5.4,2.2C205.2,99.7,205.6,101.7,205.3,103.9z"/>
<path class="st1" d="M259.5,88.2h-8.1c-0.8,0-1.5,0.4-1.9,1l-11.2,16.5l-4.7-15.8c-0.3-1-1.2-1.7-2.2-1.7h-8c-1,0-1.6,0.9-1.3,1.9
	l8.9,26.2l-8.4,11.9c-0.7,0.9,0,2.2,1.1,2.2h8.1c0.8,0,1.5-0.4,1.9-1l27-38.9C261.3,89.5,260.6,88.2,259.5,88.2z"/>
<path class="st0" d="M286.4,72.6h-16.9c-1.2,0-2.1,0.8-2.3,2l-6.8,43.2c-0.1,0.9,0.5,1.6,1.4,1.6h8.6c0.8,0,1.5-0.6,1.6-1.4
	l1.9-12.2c0.2-1.1,1.2-2,2.3-2h5.3c11.1,0,17.5-5.4,19.2-16c0.8-4.7,0-8.3-2.2-10.9C296.2,74.1,292,72.6,286.4,72.6z M288.3,88.4
	c-0.9,6-5.5,6-10,6h-2.5l1.8-11.3c0.1-0.7,0.7-1.2,1.4-1.2h1.2c3,0,5.9,0,7.4,1.7C288.4,84.7,288.6,86.3,288.3,88.4z"/>
<path class="st0" d="M336.7,88.2h-8.1c-0.7,0-1.3,0.5-1.4,1.2l-0.4,2.3l-0.6-0.8c-1.7-2.5-5.6-3.4-9.5-3.4c-8.9,0-16.5,6.8-18,16.2
	c-0.8,4.7,0.3,9.2,3,12.4c2.5,2.9,6,4.1,10.2,4.1c7.2,0,11.2-4.6,11.2-4.6l-0.4,2.2c-0.1,0.9,0.5,1.6,1.4,1.6h7.3
	c1.2,0,2.1-0.8,2.3-2l4.4-27.6C338.2,89,337.6,88.2,336.7,88.2z M325.5,103.9c-0.8,4.6-4.4,7.7-9.1,7.7c-2.3,0-4.2-0.8-5.4-2.2
	c-1.2-1.4-1.6-3.4-1.3-5.7c0.7-4.6,4.4-7.8,9-7.8c2.3,0,4.2,0.8,5.4,2.2C325.3,99.7,325.8,101.7,325.5,103.9z"/>
<path class="st0" d="M346.2,73.8l-6.9,44c-0.1,0.9,0.5,1.6,1.4,1.6h7c1.2,0,2.1-0.8,2.3-2l6.8-43.2c0.1-0.9-0.5-1.6-1.4-1.6h-7.8
	C346.9,72.6,346.3,73.1,346.2,73.8z"/>
<path class="st2" d="M70.2,127.8l1.3-8.2l-2.9-0.1H54.9l9.5-60.4c0-0.2,0.1-0.4,0.3-0.5c0.1-0.1,0.3-0.2,0.5-0.2h23.1
	c7.7,0,13,1.6,15.7,4.7c1.3,1.5,2.1,3,2.5,4.7c0.4,1.8,0.4,3.9,0,6.5l0,0.2v1.7l1.3,0.7c1.1,0.6,2,1.2,2.6,2
	c1.1,1.3,1.8,2.9,2.1,4.8c0.3,2,0.2,4.3-0.3,6.9c-0.6,3-1.5,5.7-2.8,7.8c-1.2,2-2.7,3.6-4.5,4.9c-1.7,1.2-3.8,2.1-6.1,2.7
	c-2.2,0.6-4.8,0.9-7.6,0.9h-1.8c-1.3,0-2.5,0.5-3.5,1.3c-1,0.8-1.6,2-1.8,3.3l-0.1,0.7l-2.3,14.4l-0.1,0.5c0,0.2-0.1,0.3-0.1,0.3
	c-0.1,0.1-0.2,0.1-0.2,0.1C81.3,127.8,70.2,127.8,70.2,127.8z"/>
<path class="st0" d="M109.1,74.9L109.1,74.9L109.1,74.9c-0.1,0.4-0.1,0.9-0.2,1.4c-3,15.6-13.5,21.1-26.8,21.1h-6.8
	c-1.6,0-3,1.2-3.3,2.8l0,0l0,0l-3.5,22l-1,6.2c-0.2,1.1,0.6,2,1.7,2h12c1.4,0,2.6-1,2.9-2.4l0.1-0.6l2.3-14.4l0.1-0.8
	c0.2-1.4,1.4-2.4,2.9-2.4h1.8c11.7,0,20.8-4.7,23.4-18.4c1.1-5.7,0.5-10.5-2.4-13.9C111.5,76.4,110.4,75.6,109.1,74.9z"/>
<path class="st3" d="M105.9,73.6c-0.5-0.1-0.9-0.3-1.4-0.4c-0.5-0.1-1-0.2-1.5-0.3c-1.8-0.3-3.8-0.4-6-0.4H78.9
	c-0.4,0-0.9,0.1-1.2,0.3C76.8,73.2,76.2,74,76,75l-3.9,24.4l-0.1,0.7c0.3-1.6,1.6-2.8,3.3-2.8h6.8c13.3,0,23.7-5.4,26.8-21.1
	c0.1-0.5,0.2-0.9,0.2-1.4c-0.8-0.4-1.6-0.8-2.5-1.1C106.4,73.8,106.2,73.7,105.9,73.6z"/>
<path class="st1" d="M76,75c0.2-1,0.8-1.8,1.6-2.2c0.4-0.2,0.8-0.3,1.2-0.3H97c2.1,0,4.1,0.1,6,0.4c0.5,0.1,1,0.2,1.5,0.3
	c0.5,0.1,1,0.2,1.4,0.4c0.2,0.1,0.5,0.1,0.7,0.2c0.9,0.3,1.7,0.7,2.5,1.1c0.9-5.8,0-9.7-3.1-13.3c-3.4-3.9-9.7-5.6-17.6-5.6H65.2
	c-1.6,0-3,1.2-3.3,2.8l-9.6,61c-0.2,1.2,0.7,2.3,2,2.3h14.3l3.6-22.7L76,75z"/>
</svg>
