<svg id="Layer_1" data-name="Layer 1" xmlns="http://www.w3.org/2000/svg" viewBox="0 0 400 190"><defs><style>.cls-1{fill:#d7d7d7;}.cls-2{fill:#0285cd;}.cls-3{fill:#7dbd35;}.cls-4{fill:#00a7e8;}.cls-5{fill:#c4c4c4;}</style></defs><title>logo bank</title><path class="cls-1" d="M380,5a15,15,0,0,1,15,15V170a15,15,0,0,1-15,15H20A15,15,0,0,1,5,170V20A15,15,0,0,1,20,5H380m0-5H20A20.06,20.06,0,0,0,0,20V170a20.06,20.06,0,0,0,20,20H380a20.06,20.06,0,0,0,20-20V20A20.06,20.06,0,0,0,380,0Z"/><path class="cls-2" d="M349.44,129.4c-.25-.07-.41-.17-.15-.42A.44.44,0,0,1,349.44,129.4Z"/><path class="cls-2" d="M348.66,126.84c-.26-.05-.44-.14-.14-.39Z"/><path class="cls-2" d="M349,128c-.13,0-.27,0-.08-.17A.17.17,0,0,1,349,128Z"/><path class="cls-3" d="M353.45,142.12l.08-.06A.19.19,0,0,1,353.45,142.12Z"/><path class="cls-4" d="M347.34,127.43a.4.4,0,0,1-.2-.43A.47.47,0,0,1,347.34,127.43Z"/><path class="cls-4" d="M347.75,128a.39.39,0,0,1-.21-.4A.45.45,0,0,1,347.75,128Z"/><path class="cls-4" d="M347.54,127.62l-.2-.2Z"/><path class="cls-1" d="M63.23,83.11c5.7-9.25,20.41-9.59,24.65.73l.84-1.13A15.25,15.25,0,0,1,105,76.62c5.15,1.37,7.91,5.05,9.33,9.94a22.87,22.87,0,0,1,.91,6.38c0,8.27,0,16.54,0,24.81,0,.73-.23.9-.91.89-2.77,0-5.54,0-8.3,0-.8,0-1-.19-1-1,0-7.3,0-14.6,0-21.89a19.15,19.15,0,0,0-.75-5.75c-1.13-3.6-3.57-5.48-6.91-5.33a8,8,0,0,0-7.2,6,15.8,15.8,0,0,0-.43,3.63c0,7.77,0,15.53,0,23.3,0,.86-.23,1.07-1.07,1.06-2.66-.05-5.32-.06-8,0-.92,0-1.21-.18-1.2-1.17,0-7.55,0-15.1,0-22.65a16,16,0,0,0-.79-5.41,6.73,6.73,0,0,0-11-3A9.51,9.51,0,0,0,64.35,94q0,11.76,0,23.51c0,1-.23,1.2-1.18,1.18-2.66-.07-5.32-.06-8,0-.91,0-1.13-.25-1.13-1.14,0-11.86.13-23.73-.08-35.59,0-1.33-.1-2.66-.2-4,0-.61,0-.89.77-.88,2.52,0,5,0,7.55,0,.56,0,.72.17.75.73C62.95,79.56,63.1,81.33,63.23,83.11Z"/><path class="cls-1" d="M235,81.48V77.19q0-7.93,0-15.85c0-.5-.1-1,.72-.94,3,.05,6,0,9.06,0,.58,0,.78.19.72.75a6.72,6.72,0,0,0,0,.75q0,25.4.09,50.8c0,1.69.11,3.38.21,5.06,0,.64-.1.88-.8.87-2.59,0-5.18,0-7.77,0-.62,0-.81-.21-.84-.79-.1-1.89-.24-3.77-.36-5.64-.33,0-.35.17-.44.31-3.57,5.5-8.81,7.51-15.11,6.89a15.73,15.73,0,0,1-13-9.08,25.89,25.89,0,0,1,.33-25,17.35,17.35,0,0,1,21.54-8.07A13.14,13.14,0,0,1,235,81.48Zm0,16.07c-.06-2,.21-4.11-.34-6.12-1-3.74-3.33-6.3-7.22-7a9.05,9.05,0,0,0-9.83,4.26c-2.09,3.23-2.57,6.88-2.35,10.65a14.55,14.55,0,0,0,2.19,7.34,9.09,9.09,0,0,0,9.63,4.26c4-.64,6.38-3.15,7.5-7C235.21,101.86,234.94,99.69,235,97.54Z"/><path class="cls-1" d="M171.81,83.29c.51-.13.57-.53.76-.8,4.87-7.18,16.18-8.55,22.43-2.69,3.13,2.93,4.4,6.74,4.84,10.87.41,3.87.16,7.76.19,11.64,0,5.1,0,10.21,0,15.31,0,.8-.18,1-1,1q-4.2-.08-8.41,0c-.87,0-1.15-.19-1.14-1.11,0-7.4,0-14.81,0-22.21a18.85,18.85,0,0,0-.61-5c-1.81-6.67-8.93-6.73-12.39-3.87A9.49,9.49,0,0,0,173,94.29c.06,7.66,0,15.31,0,23,0,1.54.17,1.36-1.4,1.36-2.7,0-5.39,0-8.09,0-.91,0-1.11-.26-1.11-1.14,0-12,.15-23.94-.11-35.91,0-1.19-.07-2.37-.19-3.55-.07-.71,0-1,.87-1,2.48.06,5,0,7.44,0,.68,0,.92.16,1,.88C171.47,79.71,171.66,81.48,171.81,83.29Z"/><path class="cls-1" d="M145.64,114c-.5.05-.62.4-.82.62a16.1,16.1,0,0,1-17.36,3.8c-8.53-3.59-10.09-15.55-2.81-21.66,3.24-2.72,7.12-3.94,11.2-4.64a42.19,42.19,0,0,1,7.94-.64c.68,0,.92-.15.9-.88a6.59,6.59,0,0,0-6.08-6.88,20.63,20.63,0,0,0-12.69,2.42c-.83.44-1,.2-1.15-.52-.47-1.69-1-3.38-1.52-5-.22-.65-.05-.93.53-1.23A29.66,29.66,0,0,1,136,76.21a23.85,23.85,0,0,1,9.47,1.06c5.42,1.92,8.24,6,9.3,11.43a26.09,26.09,0,0,1,.44,5q0,8.2,0,16.39a62.19,62.19,0,0,0,.47,7.64c.08.66,0,.88-.74.87q-3.94-.05-7.87,0c-.63,0-.8-.27-.87-.8C146,116.59,145.82,115.35,145.64,114Zm-.69-12.21h0c0-.93,0-1.87,0-2.8,0-.58-.2-.74-.75-.73a28.71,28.71,0,0,0-7.57.85,9.5,9.5,0,0,0-4.39,2.37,6.52,6.52,0,0,0-1.49,6.69,5,5,0,0,0,4.29,3.72,8.39,8.39,0,0,0,9.89-7.84C145,103.34,144.95,102.59,144.95,101.84Z"/><path class="cls-1" d="M280.17,85c.36-.2.36-.48.46-.7,2-4.61,5.54-6.89,10.45-7.21.82-.05,1.65,0,2.48-.07.46,0,.62.16.61.63q0,4,0,8c0,.56-.15.63-.68.53a11.23,11.23,0,0,0-4.81.07,9.4,9.4,0,0,0-7,8.21,24,24,0,0,0-.24,3.44c0,6.58,0,13.16,0,19.73,0,.78-.15,1-1,1q-4.26-.09-8.52,0c-.91,0-1-.31-1-1.11q0-17,0-34.07c0-1.87-.12-3.74-.22-5.6,0-.59.09-.81.74-.8q3.83.05,7.66,0c.59,0,.71.21.72.74,0,1.87.13,3.74.23,5.6A3.56,3.56,0,0,0,280.17,85Z"/><path class="cls-1" d="M252.92,97.78c0-6.58,0-13.15,0-19.73,0-.81.19-1,1-1,2.91.05,5.82,0,8.73,0,.72,0,.88.21.88.9q0,19.89,0,39.78c0,.7-.17.92-.89.91-2.91,0-5.82-.05-8.73,0-.84,0-1-.25-1-1C252.93,111,252.92,104.39,252.92,97.78Z"/><path class="cls-1" d="M309.63,97.88c0,6.58,0,13.16,0,19.73,0,.79-.18,1-1,1-2.91-.05-5.82,0-8.73,0-.64,0-.86-.15-.86-.83q0-19.95,0-39.9c0-.64.14-.86.83-.85,2.95,0,5.9,0,8.84,0,.8,0,.93.26.93,1C309.62,84.65,309.63,91.26,309.63,97.88Z"/><path class="cls-5" d="M383.59,43.38a126.14,126.14,0,0,0-8.5-10.56,9,9,0,0,0-9.33-3,5.63,5.63,0,0,0,0,.58,5.63,5.63,0,0,1,0-.58,38.26,38.26,0,0,0-9.5,4.47c-2.59,1.3-5.09,2.76-7.59,4.23s-5.26,3-8.37,3.3a17,17,0,0,1-6-.86,12.94,12.94,0,0,1-6.42-6.07,23,23,0,0,0-4.64-6,17,17,0,0,0-8.85-5.11,18.27,18.27,0,0,0-7.33-.24,33.58,33.58,0,0,0-14,5.52l-7.13,4.08c-2.33,1.25-4.63,2.55-6.87,4-2.21,1.14-4.36,2.38-6.47,3.69-1.28.54-2.38,1.44-3.71,1.89a14.07,14.07,0,0,1-10.1-.19,12.12,12.12,0,0,1-4.76-3.9c-.62-1-1.17-2-1.8-2.93a27.73,27.73,0,0,0-5.73-6.56,17.22,17.22,0,0,0-13-4,32.56,32.56,0,0,0-15.32,5.54c-4.17,2.24-8.25,4.63-12.33,7-3.7,2.06-7.41,4.11-11,6.33a36.92,36.92,0,0,0-4.13,2.36l-4,2.27c-1.5.84-3,1.72-4.51,2.51-.69.35-.66.62-.21,1.16,2.11,2.54,4.19,5.12,6.28,7.67a8.44,8.44,0,0,0,1.9,1.73,13.33,13.33,0,0,0,6,3.24,9.42,9.42,0,0,0,5,.26c.39,0,.78-.06,1.16-.14,3.91-.84,7-3.32,10.37-5.23l12.19-7c4.62-2.69,9.26-5.35,14.46-6.84a26.71,26.71,0,0,1,11.43-.45,22.35,22.35,0,0,1,9.71,5.39,39.36,39.36,0,0,1,5.58,7.49,9.85,9.85,0,0,0,2.33,2.67c3.19,2.58,6.71,3.43,10.65,1.93a44.85,44.85,0,0,0,6.6-3.57c.07,0,.08-.19.12-.29a.86.86,0,0,0,.61-.1l6-3.58c2.37-1.22,4.64-2.63,6.93-4,4.46-2.54,8.85-5.22,13.78-6.81A46.87,46.87,0,0,1,320,43.4a27.82,27.82,0,0,1,7.33.9,24.32,24.32,0,0,1,8.85,5.59,45,45,0,0,1,4.9,6.64,10.67,10.67,0,0,0,4.36,4.19c3.25,1.91,6.5,1.59,9.75,0,2.63-1.23,5-2.85,7.55-4.3q4.6-2.48,9-5.22c3.86-2.2,7.71-4.42,11.58-6.59C384.06,44.21,384,43.91,383.59,43.38Z"/><path class="cls-1" d="M63.5,151.38a10.12,10.12,0,0,1-3.54-.59A7.27,7.27,0,0,1,57.2,149a8.21,8.21,0,0,1-1.79-3,13.17,13.17,0,0,1-.64-4.32,12.28,12.28,0,0,1,.66-4.26,9.16,9.16,0,0,1,1.77-3A7.33,7.33,0,0,1,60,132.46a9.43,9.43,0,0,1,3.54-.66,10.19,10.19,0,0,1,3,.44,15.9,15.9,0,0,1,2.56,1v3.54h-.18q-.34-.28-.86-.65a11,11,0,0,0-1.28-.75,8.4,8.4,0,0,0-1.54-.59,6.29,6.29,0,0,0-1.71-.25,4.79,4.79,0,0,0-3.93,1.85,10,10,0,0,0,0,10.41,4.75,4.75,0,0,0,4,1.85,7,7,0,0,0,2.93-.64,9.09,9.09,0,0,0,2.46-1.64H69v3.54l-1.17.53a8.78,8.78,0,0,1-1.27.46q-.8.23-1.44.36A8.74,8.74,0,0,1,63.5,151.38Z"/><path class="cls-1" d="M75.12,151H72V124.88h3.15Z"/><path class="cls-1" d="M83.21,129.1H79.62v-3.27h3.59ZM83,151H79.84V132.24H83Z"/><path class="cls-1" d="M95.06,151.38a10.12,10.12,0,0,1-3.54-.59,7.27,7.27,0,0,1-2.77-1.8,8.21,8.21,0,0,1-1.79-3,13.17,13.17,0,0,1-.64-4.32,12.28,12.28,0,0,1,.66-4.26,9.16,9.16,0,0,1,1.77-3,7.33,7.33,0,0,1,2.76-1.89,9.43,9.43,0,0,1,3.54-.66,10.19,10.19,0,0,1,3,.44,15.9,15.9,0,0,1,2.56,1v3.54h-.18q-.34-.28-.86-.65a11,11,0,0,0-1.28-.75,8.4,8.4,0,0,0-1.54-.59,6.29,6.29,0,0,0-1.71-.25,4.79,4.79,0,0,0-3.93,1.85,10,10,0,0,0,0,10.41,4.75,4.75,0,0,0,4,1.85,7,7,0,0,0,2.93-.64,9.09,9.09,0,0,0,2.46-1.64h.18v3.54l-1.17.53a8.78,8.78,0,0,1-1.27.46q-.8.23-1.44.36A8.74,8.74,0,0,1,95.06,151.38Z"/><path class="cls-1" d="M119,151h-4.14l-7-9-1.24,1.21V151h-3.15V124.88h3.15v15.27l7.41-7.91h3.92l-7.69,7.83Z"/><path class="cls-1" d="M136.26,141.1a11.52,11.52,0,0,1-2.24,7.45,7,7,0,0,1-5.66,2.77,8.65,8.65,0,0,1-2.46-.32,9.64,9.64,0,0,1-2.2-1v7.84h-3.15V132.24h3.15v2a11.58,11.58,0,0,1,2.61-1.77,6.93,6.93,0,0,1,3.13-.71,5.8,5.8,0,0,1,5,2.55A11.63,11.63,0,0,1,136.26,141.1Zm-3.25.35a10,10,0,0,0-1-5,3.54,3.54,0,0,0-3.32-1.77,6,6,0,0,0-2.59.59,11.19,11.19,0,0,0-2.37,1.53v10.61a11.16,11.16,0,0,0,2.12.82,8.42,8.42,0,0,0,2,.22,4.5,4.5,0,0,0,3.8-1.79A8.6,8.6,0,0,0,133,141.46Z"/><path class="cls-1" d="M150,149l-1,.8a7.28,7.28,0,0,1-1.25.81,9.42,9.42,0,0,1-1.62.67,8,8,0,0,1-2.19.23,5.66,5.66,0,0,1-4-1.66,5.72,5.72,0,0,1-1.21-1.9,6.84,6.84,0,0,1,.37-5.7,5.61,5.61,0,0,1,2.6-2.17,12.9,12.9,0,0,1,3.72-1q2.14-.28,4.63-.41V138a4,4,0,0,0-.34-1.79,2.48,2.48,0,0,0-.94-1,3.69,3.69,0,0,0-1.47-.51,12.52,12.52,0,0,0-1.79-.13,12.08,12.08,0,0,0-2.56.33,17.24,17.24,0,0,0-3,.95h-.18v-3.2q.87-.25,2.5-.55a17.61,17.61,0,0,1,3.22-.3,14.9,14.9,0,0,1,3.25.3,6.26,6.26,0,0,1,2.38,1.09,4.67,4.67,0,0,1,1.53,2,7.86,7.86,0,0,1,.5,3V151H150Zm0-2.62v-5.2l-2.84.28a15.36,15.36,0,0,0-2.77.49,5.07,5.07,0,0,0-2.08,1.18,3,3,0,0,0-.82,2.22,3.12,3.12,0,0,0,.91,2.43,3.81,3.81,0,0,0,2.65.82,5.63,5.63,0,0,0,2.7-.65A11.71,11.71,0,0,0,150,146.35Z"/><path class="cls-1" d="M172,132.24,162,157.86h-3.37l3.35-7.81-6.8-17.82h3.4l5.11,13.86,5.09-13.86Z"/></svg>