<svg id="Layer_1" data-name="Layer 1" xmlns="http://www.w3.org/2000/svg" viewBox="0 0 400 190"><defs><style>.cls-1{fill:#d7d7d7;}</style></defs><title>logo bank</title><path class="cls-1" d="M380,5a15,15,0,0,1,15,15V170a15,15,0,0,1-15,15H20A15,15,0,0,1,5,170V20A15,15,0,0,1,20,5H380m0-5H20A20.06,20.06,0,0,0,0,20V170a20.06,20.06,0,0,0,20,20H380a20.06,20.06,0,0,0,20-20V20A20.06,20.06,0,0,0,380,0Z"/><path class="cls-1" d="M50,51.25l24.44.12H76.9c-.56,2.68-1.3,5.2-1.57,7.76-.87,8.32,1.24,16.08,5.32,23.21,3.45,6,7.42,11.8,11.31,17.94l-8,6.4c-.43-.48-.83-.87-1.18-1.3Q67.08,85.67,51.35,66A11.53,11.53,0,0,0,50,64.72Z"/><path class="cls-1" d="M50,82,75.26,113.9a16.82,16.82,0,0,0-1.5,1L51.11,133.67a12.11,12.11,0,0,1-1.11.74Q50,108.23,50,82Z"/><path class="cls-1" d="M156,52.1c12.6,0,24.92-.16,37.23.07a25.38,25.38,0,0,1,14.63,5.21c9.18,6.74,7.5,20.72-.49,26.69-1.63,1.21-3.44,2.17-5.34,3.36,1.18.3,2.31.58,3.44.89,14.18,3.86,21,18.94,14.23,31.41-3.21,5.86-8.5,9.3-14.46,11.81a40.11,40.11,0,0,1-16.63,3.25c-10.19-.21-20.39-.06-30.59-.06h-2.09a42.13,42.13,0,0,0,4.45-4.25,6.67,6.67,0,0,0,1.46-3.78q.13-33.86,0-67.72a6.19,6.19,0,0,0-1.64-3.64A27.91,27.91,0,0,0,156,52.1Zm19.32,73.53c5.16,0,10.1-.17,15,0s9.16-1.61,12.95-4.52c4.51-3.46,7-8,6.38-13.83-.85-7.66-8.53-14.39-16.5-14.57-5.51-.13-11,0-16.55,0a8.3,8.3,0,0,0-1.31.21ZM175.5,60c-.16.36-.26.47-.26.58,0,8.07,0,16.14-.08,24.21,0,1.25.79,1.24,1.67,1.24,4.55,0,9.1.06,13.65-.05a8.18,8.18,0,0,0,3.45-1c5.85-3.06,8.42-8.28,7.44-14.83-.77-5.08-5.21-9.89-9.92-10.14C186.15,59.84,180.83,60,175.5,60Z"/><path class="cls-1" d="M295.4,113.25V111c0-16.75-.11-33.49.09-50.23a7.7,7.7,0,0,0-3.79-7.16c-.57-.38-1.12-.8-2-1.4H311c-1.47.9-2.82,1.68-4.11,2.54a5.24,5.24,0,0,0-2.49,4.83q.11,38.4,0,76.8v2.38a13.85,13.85,0,0,1-1.4-.7c-7.53-5-13.45-11.66-18.93-18.73q-17.87-23-35.65-46.13l-1.54-2a15.24,15.24,0,0,0-.23,1.69c0,18,0,35.93.05,53.89a7.06,7.06,0,0,0,1.37,3.64,45,45,0,0,0,3.58,4.18H231.84a33.68,33.68,0,0,0,3.55-4,8.26,8.26,0,0,0,1.55-4.17q.14-33.68,0-67.37a7.05,7.05,0,0,0-1.69-3.85,24.12,24.12,0,0,0-3.73-3.16c6.37,0,12.37,0,18.37.06.61,0,1.35.82,1.77,1.43,7.12,10.28,14,20.72,21.33,30.85,6.94,9.62,14.31,18.93,21.49,28.37.15.2.28.42.42.63Z"/><path class="cls-1" d="M325.76,52.12h24c-1.48,1-2.69,1.88-3.88,2.76a5.23,5.23,0,0,0-2.22,4.6c.06,21.87.1,43.73,0,65.6a8.27,8.27,0,0,0,3.31,7.11l3,2.43H325.79c1.26-1.14,2.44-2.17,3.57-3.24a7,7,0,0,0,2.24-5.47c-.07-21.8-.12-43.6,0-65.4A7.34,7.34,0,0,0,328,53.67C327.39,53.26,326.78,52.83,325.76,52.12Z"/><path class="cls-1" d="M133.84,92.83c0,4.68-.06,9.36,0,14a2.34,2.34,0,0,1-1.76,2.53,12.11,12.11,0,0,1-11.73-1.2,44.72,44.72,0,0,1-13.32-12.88c-3.95-5.84-4.78-14.8.29-20.41a13.86,13.86,0,0,1,14.08-4.46c4.34.94,8,3.32,11.48,6a3,3,0,0,1,.87,2.13C133.87,83.34,133.84,88.09,133.84,92.83Z"/><path class="cls-1" d="M133.67,62.43c-8.17-3.15-16-2.86-23.44,1.77S99.49,76.06,98.38,84.92C93.53,78.28,89.47,71.76,87.85,64a22.62,22.62,0,0,1,0-10.83c.31-1.11.74-1.87,2.2-1.86,14.16.06,28.32,0,42.49.06.31,0,.63.05,1.11.1Z"/><path class="cls-1" d="M106.1,134.54l5.4-4.71c-4.33,0-7.83-1.81-11-4.19C95.6,122,91.9,117.24,88,112.32l8.43-7c2.86,2.73,5.51,5.5,8.42,8,4.71,4,10.07,6.57,16.41,6.57a16.75,16.75,0,0,0,12.42-5.28v19.93Z"/><path class="cls-1" d="M79.29,119.1,92,134.54H60.91Z"/></svg>