<svg id="Layer_1" data-name="Layer 1" xmlns="http://www.w3.org/2000/svg" viewBox="0 0 400 190"><defs><style>.cls-1{fill:#d7d7d7;}.cls-2{fill:#0285cd;}.cls-3{fill:#7dbd35;}.cls-4{fill:#00a7e8;}.cls-5{fill:#828282;}.cls-6{fill:#9c9c9c;}.cls-7{fill:#0058aa;}.cls-8{fill:#fcc90a;}.cls-9{fill:#e20f1a;}.cls-10{fill:#fdfdfd;}</style></defs><title>logo indomaret</title><path class="cls-1" d="M380,5a15.017,15.017,0,0,1,15,15V170a15.017,15.017,0,0,1-15,15H20A15.017,15.017,0,0,1,5,170V20A15.017,15.017,0,0,1,20,5H380m0-5H20A20.059,20.059,0,0,0,0,20V170a20.059,20.059,0,0,0,20,20H380a20.059,20.059,0,0,0,20-20V20A20.059,20.059,0,0,0,380,0Z"/><path class="cls-2" d="M349.441,129.4c-.249-.068-.414-.165-.149-.417A.438.438,0,0,1,349.441,129.4Z"/><path class="cls-2" d="M348.656,126.84c-.257-.053-.435-.135-.144-.391Z"/><path class="cls-2" d="M349,127.975c-.129-.009-.266-.014-.076-.167A.169.169,0,0,1,349,127.975Z"/><path class="cls-3" d="M353.449,142.121a.281.281,0,0,0,.082-.059A.194.194,0,0,1,353.449,142.121Z"/><path class="cls-4" d="M347.345,127.426a.4.4,0,0,1-.2-.428A.475.475,0,0,1,347.345,127.426Z"/><path class="cls-4" d="M347.745,128.011a.39.39,0,0,1-.21-.4A.447.447,0,0,1,347.745,128.011Z"/><path class="cls-4" d="M347.54,127.62l-.2-.2Z"/><path class="cls-5" d="M32.959,48.347a7.711,7.711,0,0,1,7.082-7.6c.447-.029.9-.024,1.345-.024q158.594,0,317.189-.048a8.252,8.252,0,0,1,8.566,8.552c-.106,8.034-.042,16.07-.008,24.105,0,.907-.2,1.194-1.158,1.192-12.632-.033-25.264-.021-37.9-.029-.473,0-1.026.216-1.2-.6-1.175-5.6-4.984-8.788-10.1-10.564a267.265,267.265,0,0,0-33.75-8.934c-12.812-2.641-25.729-4.605-38.734-6q-20.465-2.191-41.05-2.366c-11.889-.087-23.764.268-35.614,1.235-27.2,2.219-54.035,6.534-80.189,14.552-1.6.492-3.215.986-4.778,1.592-4.457,1.73-7.862,4.559-9.341,9.29-.56,1.791-.529,1.8-2.475,1.8q-18.22,0-36.439,0c-.408,0-.816-.043-1.224-.067q.012-12.637.022-25.274C33.207,48.864,33.262,48.549,32.959,48.347Z"/><path class="cls-1" d="M72.988,116.288c1.432,5.539,5.167,8.844,10.413,10.619a293.355,293.355,0,0,0,39.809,10.044q13.649,2.574,27.446,4.177c8.085.942,16.189,1.68,24.319,2.154,10.446.609,20.9.95,31.359.739,11.839-.238,23.654-.9,35.44-2.109a382.134,382.134,0,0,0,64.015-11.742c3.739-1.044,7.467-2.137,11.113-3.468,5.105-1.864,8.849-5.064,10.03-10.65.038-.18.052-.375.278-.433.325.377.765.226,1.156.226q18.69.012,37.381,0c.392,0,.83.149,1.162-.216.39.278.2.688.2,1.029q.019,12.053.007,24.106c-.007,5.293-3.238,8.524-8.532,8.524q-158.594,0-317.187.039c-5.192,0-8.322-3.854-8.458-7.229a3.915,3.915,0,0,1,.031-.445c.411-.358.235-.84.236-1.265q.016-11.659-.009-23.318c0-.87.147-1.243,1.144-1.24q18.666.05,37.332.01A1.944,1.944,0,0,1,72.988,116.288Z"/><path class="cls-5" d="M199.776,137.59a414.729,414.729,0,0,1-53.529-3.561,345.71,345.71,0,0,1-58.1-12.361,23.526,23.526,0,0,1-4.805-1.82,7.108,7.108,0,0,1-4.012-6.69c.1-12.219.069-24.439.015-36.659a6.538,6.538,0,0,1,2.735-5.469,12.209,12.209,0,0,1,3.788-1.891,287.425,287.425,0,0,1,34.573-8.885A405.393,405.393,0,0,1,167.03,53.8a407.48,407.48,0,0,1,129.243,10.27c6.159,1.531,12.259,3.27,18.271,5.313a12.014,12.014,0,0,1,3.278,1.676,6.335,6.335,0,0,1,2.811,5.333q0,18.666,0,37.332a6.427,6.427,0,0,1-3.131,5.5,21.816,21.816,0,0,1-5.986,2.445,315.518,315.518,0,0,1-40.381,9.653c-11.664,2.076-23.4,3.6-35.2,4.653C223.906,137.052,211.851,137.556,199.776,137.59Zm-1.3-10.231a515.36,515.36,0,0,0,54.555-2.792c16.061-1.663,32.025-3.986,47.857-7.173,2.707-.545,5.423-1.085,8.087-1.8,3.471-.937,4.987-3.059,4.994-6.627,0-1.831,0-3.663,0-5.494q0-11.269,0-22.538a6.024,6.024,0,0,0-4.39-6.3,14.4,14.4,0,0,0-1.832-.511c-14.6-3.254-29.343-5.6-44.179-7.429q-25.162-3.1-50.5-3.822a505.064,505.064,0,0,0-60.907,2.1q-17.692,1.642-35.237,4.464c-8.335,1.339-16.636,2.861-24.871,4.725-3.966.9-6,3.456-6,7.481q0,13.287,0,26.575c0,4.279,1.972,6.754,6.161,7.685a494.234,494.234,0,0,0,64.014,9.536C170.778,126.727,185.372,127.4,198.475,127.359Z"/><path class="cls-6" d="M327.178,111.59c-.021-.334-.062-.668-.062-1,0-10.428.013-20.856-.028-31.284,0-1,.256-1.229,1.235-1.226q18.781.052,37.563,0c.948,0,1.258.177,1.253,1.209-.044,10.5-.024,21.005-.038,31.508,0,.332.22.744-.2,1.006-.379-.367-.853-.2-1.282-.2Q346.4,111.585,327.178,111.59Z"/><path class="cls-6" d="M33.211,78.155c.409-.018.818-.052,1.227-.052q18.6,0,37.192-.022c.961,0,1.324.159,1.318,1.248-.055,10.493-.041,20.985-.062,31.478,0,.329.227.746-.21,1-.377-.372-.852-.2-1.28-.205q-18.44-.014-36.881.012c-.993,0-1.336-.215-1.331-1.285C33.226,99.6,33.21,88.879,33.211,78.155Z"/><path class="cls-7" d="M33.211,78.155c0,10.724.015,21.448-.027,32.173,0,1.07.338,1.287,1.331,1.285q18.44-.046,36.881-.012c.429,0,.9-.167,1.28.205-.371.022-.743.062-1.114.062q-18.725,0-37.449.021c-.909,0-1.251-.113-1.246-1.175.052-10.465.027-20.93.047-31.394C32.915,78.937,32.617,78.412,33.211,78.155Z"/><path class="cls-8" d="M72.988,116.288a1.944,1.944,0,0,0-1.319-.448q-18.666.024-37.332-.01c-1,0-1.148.37-1.144,1.24q.042,11.659.009,23.318c0,.426.176.907-.236,1.265-.016-2.612-.044-5.224-.047-7.835-.007-5.712.013-11.423-.019-17.134,0-.834.163-1.145,1.086-1.143q18.982.048,37.965.021C72.468,115.561,73.06,115.447,72.988,116.288Z"/><path class="cls-7" d="M327.178,111.59q19.222,0,38.443.01c.429,0,.9-.165,1.282.2-.371.023-.741.065-1.112.065q-18.71.005-37.421-.011C327.977,111.855,327.472,112.123,327.178,111.59Z"/><path class="cls-8" d="M366.907,115.63c-.332.365-.77.215-1.162.216q-18.69.012-37.381,0c-.391,0-.831.151-1.156-.226.259-.019.518-.054.777-.054q19.017,0,38.034,0C366.315,115.565,366.611,115.607,366.907,115.63Z"/><path class="cls-9" d="M32.959,48.347c.3.2.248.517.248.809Q33.2,61.793,33.185,74.43c-.429-.116-.284-.475-.284-.74q-.009-12.508,0-25.015A1.912,1.912,0,0,1,32.959,48.347Z"/><path class="cls-6" d="M196.479,95.434q4.281-1.8,8.564-3.607a8.126,8.126,0,0,1,.947-.34c2.594-.728,3.626,0,3.789,2.8a12.215,12.215,0,0,1,4.595-2.756c2.567-.859,4.386-.126,5.5,2.33.282.625.456.58.908.2a12.341,12.341,0,0,1,4.457-2.512c2.532-.726,4.333.733,4.14,3.368a13.373,13.373,0,0,1-.959,3.785c-.786,2.057-1.555,4.12-2.333,6.181a3.271,3.271,0,0,0-.285,1.416c.053.682.421,1.083,1.1.928a20.861,20.861,0,0,0,4.081-1.811c.289-.135.22-.444.277-.691a20.008,20.008,0,0,1,7.206-11.176,9.755,9.755,0,0,1,5.185-2.21,3.667,3.667,0,0,1,3.034.83c.392.364.55.317.823-.088a1.989,1.989,0,0,1,1.634-.855c1.409-.045,2.82-.014,4.376-.014-1.071,2.868-2.1,5.621-3.127,8.373-.693,1.853-1.4,3.7-2.079,5.558-.149.4-.417.845-.01,1.254.423.425.9.226,1.358.063a4.183,4.183,0,0,0,.92-.4,19.034,19.034,0,0,0,8.11-10.619,1.182,1.182,0,0,0,.091-.436c-.31-2.742,2.015-4.166,3.1-6.208.171-.322.353-.241.623-.065,2.429,1.584,2.433,1.578,5.5,1.843-.886.859-1.631,1.587-2.383,2.31-1.035.995-1.006,1.258.26,1.98a6.908,6.908,0,0,0,3.36.711c.249.006.514-.128.711.158a6.288,6.288,0,0,1-.058,3.844,25.27,25.27,0,0,0-2.948,6.387c-.539,1.64.2,2.487,1.9,2.522,1.639.034,2.9-.839,4.223-1.61.4-.233.25-.544.2-.879a13.711,13.711,0,0,1,6.787-13.813,6.876,6.876,0,0,1,4.964-.834,4.291,4.291,0,0,1,3.5,5.516,12.418,12.418,0,0,1-5.158,7.228,27.52,27.52,0,0,1-3.228,2.014c-.7.38-.593.7-.167,1.17a4.111,4.111,0,0,0,1.884,1.158,7.37,7.37,0,0,0,9.038-3.921c.585-1.164,1.055-2.389,1.541-3.6.61-1.519,1.184-3.054,1.843-4.763-.871,0-1.63-.009-2.389,0-.451.007-.614-.131-.431-.6.506-1.284,1.012-2.569,1.47-3.871.212-.6.662-.487,1.094-.493,1.987-.026,1.989-.024,2.675-1.9.987-2.7,1.993-5.392,2.936-8.107.243-.7.531-1.019,1.331-.982,1.6.074,3.2.022,4.973.022l-4.129,10.948h2.984l-1.641,4.566c-.192.534-.651.4-1.043.406-2.106.039-2.127.029-2.843,2.038a73.413,73.413,0,0,0-2.593,7.27c-.229.949-.762,2.029.155,2.847.938.836,2.055.414,3.078.051a10.084,10.084,0,0,0,3.081-1.8,1.356,1.356,0,0,1,1.648-.19c.907.482.947.826.228,1.57a12.622,12.622,0,0,1-11.192,4.18,4.529,4.529,0,0,1-3.357-1.792c-.4-.579-.719-.172-1.029-.009a14.819,14.819,0,0,1-7.608,1.951c-2.567-.105-4.883-.733-6.593-2.78-.409-.489-.66-.244-1.009-.02a16.3,16.3,0,0,1-6.7,2.681,11.073,11.073,0,0,1-4.008-.173c-2.527-.6-3.6-2.269-3.074-4.825a21.918,21.918,0,0,1,2.269-5.822c.157-.3.35-.576.491-.88.323-.7.91-1.478.056-2.108-.795-.586-1.487.047-2.087.544a11.372,11.372,0,0,0-2.091,2.618c-2.727,4.117-6.018,7.614-10.592,9.719a12.325,12.325,0,0,1-2.289.9c-2.154.511-3.018.094-3.884-2a6.445,6.445,0,0,1-4.785,2.114c-2.709.165-4.412-.876-5.519-3.482-.333-.785-.6-.9-1.348-.495q-3.054,1.648-6.184,3.152c-1.336.646-2.819,1.208-4.138.178-1.342-1.048-1.339-2.66-1.147-4.227a25.307,25.307,0,0,1,1.83-5.627,6.467,6.467,0,0,0,.536-1.933c.021-.448.083-.929-.382-1.206a1.272,1.272,0,0,0-1.377.125,4.327,4.327,0,0,0-1.677,2.313c-1.317,3.412-2.668,6.811-3.924,10.245a1.308,1.308,0,0,1-1.54,1.011c-1.529-.067-3.065-.07-4.594,0-.91.04-1.093-.162-.751-1.038,1.276-3.267,2.5-6.556,3.721-9.843a8.8,8.8,0,0,0,.425-1.617c.073-.437.093-.927-.378-1.2a1.273,1.273,0,0,0-1.376.135,4.4,4.4,0,0,0-1.671,2.318c-1.316,3.412-2.658,6.815-3.934,10.242-.274.735-.594,1.058-1.423,1.01a42.405,42.405,0,0,0-4.37-.021c-.923.042-1.058-.18-.734-1.036,1.706-4.5,3.363-9.021,5.033-13.535.15-.4.269-.821.455-1.4l-5.481,1.674Zm40.959,9.923c.021.914.217,1.464.672,1.711a1.448,1.448,0,0,0,1.67-.276,13.014,13.014,0,0,0,4.944-8.719,1.355,1.355,0,0,0-2.307-1.289A13.406,13.406,0,0,0,237.438,105.356Zm46.27-8.605c.017-.377.049-.65-.2-.827a.882.882,0,0,0-1.038.1,9.31,9.31,0,0,0-3.936,4.687c-.153.381-.294.819.115,1.123s.791,0,1.105-.236a12.811,12.811,0,0,0,3.679-4.12A4.843,4.843,0,0,0,283.708,96.751Z"/><path class="cls-6" d="M124.012,97c.433.272.687-.133.957-.3,1.7-1.083,3.371-2.211,5.063-3.308a17.85,17.85,0,0,1,4-1.983,3.937,3.937,0,0,1,4.906,1.833c.227.382.4.8.632,1.266a17.8,17.8,0,0,1,3.668-2.518,6.564,6.564,0,0,1,3.115-.778,2.8,2.8,0,0,1,2.818,2.524,7.408,7.408,0,0,1-.54,3.836c-.842,2.235-1.7,4.465-2.537,6.7a6.52,6.52,0,0,0-.354,1.175c-.21,1.227.351,1.766,1.51,1.36,1.052-.369,2.047-.9,3.078-1.335.509-.215.38-.657.45-1.043.993-5.427,3.684-9.66,8.766-12.086a10.806,10.806,0,0,1,7.123-.684c.7.156.947.015,1.185-.647,1.175-3.264,2.432-6.5,3.606-9.764.265-.737.581-1.083,1.418-1.027a27.383,27.383,0,0,0,3.7,0c1.071-.074,1.015.308.71,1.115q-4.411,11.674-8.755,23.374c-.217.585-.846,1.245-.238,1.858s1.423.256,2.117.027c1.168-.385,2.312-.844,3.466-1.272l1.023,2.258q-3.8,1.791-7.6,3.582a11.5,11.5,0,0,1-2.855.97c-1.8.327-2.476-.072-3.005-1.869a7.375,7.375,0,0,1-6.605,1.867,4.135,4.135,0,0,1-3.649-3.187c-.29-1.113-.665-.991-1.484-.553-2.073,1.109-4.217,2.084-6.3,3.182-3.3,1.742-5.352-1.215-5.137-3.695a9.16,9.16,0,0,1,.679-2.471c.626-1.638,1.237-3.283,1.785-4.948.218-.663.4-1.5-.422-1.882-.74-.343-1.351.168-1.861.7a4.476,4.476,0,0,0-.878,1.548c-1.351,3.478-2.727,6.947-4.051,10.436-.27.712-.57,1.076-1.418,1.025a36.294,36.294,0,0,0-4.369,0c-1.124.068-1.1-.327-.764-1.183,1.253-3.2,2.463-6.409,3.668-9.624.334-.892.934-1.941.052-2.7-.808-.7-1.785-.076-2.618.324a16.38,16.38,0,0,0-3.318,2.277c-2.845,2.364-5.673,4.748-8.541,7.084a16.619,16.619,0,0,1-14.834,3.4,11.826,11.826,0,0,1-5.739-3.341,4.022,4.022,0,0,1-.543-5.658,9.3,9.3,0,0,1,2.37-2.455c.268.094.256.3.3.472,1.253,4.9,5.334,7.335,10.25,6.113a13.306,13.306,0,0,0,6.964-4.449A21.882,21.882,0,0,0,118.7,96.19c1.97-5,3.99-9.98,5.979-14.971.132-.33.478-.717.216-1.027s-.706-.049-1.057.013a39.422,39.422,0,0,0-8.358,2.469,7.32,7.32,0,0,0-2.425,1.58,3.7,3.7,0,0,0,.99,6.092,8.766,8.766,0,0,0,2.673.72c-.9,3.315-3.934,4.945-7.491,4.061a7.633,7.633,0,0,1-3.866-12.294c1.881-2.265,4.459-3.45,7.139-4.45,3.171-1.184,6.522-1.576,9.82-2.2,3.118-.588,6.242-1.141,9.365-1.7.324-.058.652-.089.991-.134.144.458-.123.76-.249,1.083q-4.064,10.372-8.14,20.738c-.107.274-.167.566-.249.85l-.1.143.1,0Zm40.216,1.178c-.035-.677-.078-1.319-.726-1.688a1.367,1.367,0,0,0-1.57.25,12.782,12.782,0,0,0-5.028,8.783,1.437,1.437,0,0,0,.676,1.553,1.4,1.4,0,0,0,1.574-.245A13.635,13.635,0,0,0,164.227,98.179Z"/><path class="cls-5" d="M174.9,107.579l-1.023-2.258a13.5,13.5,0,0,1,.591-9.505c2.111-4.387,5.573-6.991,10.478-7.234s8.58,2.033,11.122,6.191c.136.222.276.441.413.661l.932,2.552a13.191,13.191,0,0,1-1.681,10.2,11.982,11.982,0,0,1-20.39.04C175.2,108,175.045,107.793,174.9,107.579Zm10.628-17.336a10.992,10.992,0,0,0,0,21.971,10.991,10.991,0,0,0,0-21.971Z"/><path class="cls-10" d="M124.012,97l.024.153-.1,0,.1-.143Z"/><path class="cls-5" d="M176.2,101.218a9.331,9.331,0,1,1,9.3,9.662A9.461,9.461,0,0,1,176.2,101.218Zm1.617-.042a7.719,7.719,0,1,0,7.7-7.95A7.842,7.842,0,0,0,177.821,101.176Z"/><path class="cls-5" d="M192.015,101.173a6.5,6.5,0,1,1-6.547-6.673A6.548,6.548,0,0,1,192.015,101.173Zm-6.5,5.057a4.933,4.933,0,0,0,4.888-5.068,4.877,4.877,0,1,0-9.746.085A4.927,4.927,0,0,0,185.514,106.23Z"/></svg>