<svg id="Layer_1" data-name="Layer 1" xmlns="http://www.w3.org/2000/svg" viewBox="0 0 400 190"><defs><style>.cls-1{fill:#d7d7d7;}.cls-2{fill:#c4c4c4;}.cls-3{fill:#fdfdfd;}.cls-4{fill:#fdfcfc;}.cls-5{fill:#a0a0a0;}</style></defs><title>logo bank</title><path class="cls-1" d="M380,5a15,15,0,0,1,15,15V170a15,15,0,0,1-15,15H20A15,15,0,0,1,5,170V20A15,15,0,0,1,20,5H380m0-5H20A20.06,20.06,0,0,0,0,20V170a20.06,20.06,0,0,0,20,20H380a20.06,20.06,0,0,0,20-20V20A20.06,20.06,0,0,0,380,0Z"/><path class="cls-2" d="M200.19,148.49a84.74,84.74,0,0,1-9.76,7.35,70.49,70.49,0,0,1-29,10.42,68.71,68.71,0,0,1-38.12-5.69c-20.86-9.7-34.56-25.73-40-48.1C77.76,89.86,82.5,69.1,97,50.85a67.75,67.75,0,0,1,41.35-25.09c22.89-4.36,43.33,1.21,61.11,16.34.24.2.49.38.74.57.07.43-.27.62-.52.83-1.8,1.53-3.41,3.25-5,4.94-.45.46-.83,1-1.36,1.61.52,0,.85.05,1.18.05,3.45,0,6.92.12,10.36,0a4,4,0,0,1,4,2c1.2,1.86,2.63,3.56,3.77,5.49a1.74,1.74,0,0,1-1.07.14q-11.45,0-22.9,0a1.54,1.54,0,0,0-1.58.84c-1.08,1.88-2.15,3.76-3.09,5.71-.47,1-.47,1,.6,1h.66q15.36,0,30.72,0a1.15,1.15,0,0,1,1.28.78c.8,1.91,1.63,3.81,2.31,5.76.37,1,.36,1.05-.79,1.05H191.25c-3.3,0-6.6,0-9.89,0-.57,0-.94.11-1.11.72-.54,1.93-1.1,3.86-1.58,5.81-.22.91.05,1,.87,1q16.4,0,32.79,0c3,0,5.91,0,8.86,0,.63,0,.9.18,1,.79.18,1.14.42,2.28.63,3.42-3.44-.63-5.33,1.59-7.18,4a25.35,25.35,0,0,1,.39-2.94c.11-.58-.05-.76-.65-.74-1.47,0-2.95,0-4.42,0-1.83,0-1.83,0-2.18,1.74,0,.18-.08.37-.12.55-.62.18-1.52-.54-1.73.86-1,6.45-2.06,12.88-3.11,19.31-.44,2.72-.87,5.45-1.33,8.17-.13.76-.05,1.14.89,1.08,1.47-.09,3,0,4.43,0,.75,0,1.67.21,2.2-.14s.33-1.39.52-2.11a4.41,4.41,0,0,1,.84,0c.62.09.8-.2.89-.76.49-3.22,1-6.44,1.54-9.64a33.18,33.18,0,0,1,1.65-7c.11-.08.23-.14.19-.31h0a5.82,5.82,0,0,1,2.75-.7c.67.09,1.21.2.93,1.13a7.85,7.85,0,0,0-.12,1.59c-.4,4.65.16,9.1,2.71,13.15-.54,1.87-1.11,3.72-1.59,5.6-.19.77-.55.94-1.3.94q-18.61,0-37.21,0h-1.2c.69,2.27,1.6,4.33,2.44,6.42a1.58,1.58,0,0,0,1.75,1.12c10.43,0,20.85,0,31.28,0,.76,0,.93.1.55.84q-1.5,2.94-3.13,5.8a1.68,1.68,0,0,1-1.69,1c-7.66,0-15.32,0-23,0-.32,0-.68-.14-1,.17a71.54,71.54,0,0,0,4.65,6.51,1.61,1.61,0,0,0,1.42.67c4.21,0,8.42,0,12.62,0a1.6,1.6,0,0,1,1,.12c-.31.38-.59.74-.89,1.09C204.6,144.2,202.37,146.32,200.19,148.49ZM149.11,89.17h0a7,7,0,0,0-2.41,3.61c0-.19,0-.37-.06-.56a7.82,7.82,0,0,0-6.52-7.76,24,24,0,0,0-11.15.6c-1.36.34-2.28.87-2.23,2.41-.61.29-1.56.1-1.74,1-.35,1.81-.62,3.64-.94,5.46-.08.46.06.55.5.42a23.4,23.4,0,0,1,2.27-.59,22.73,22.73,0,0,1,8.31-.29,2.13,2.13,0,0,1,1.93,1.79,23.36,23.36,0,0,0-3.76.09,13.65,13.65,0,0,0-8,3.2c-.62.56-1.15,1.23-1.72,1.86-.11,0-.19.11-.17.24h0a3.19,3.19,0,0,0-1.31,1.29,11.83,11.83,0,0,0-1.42,10.35,6,6,0,0,0,4.29,4.26,9.4,9.4,0,0,0,9.13-2c.29-.25.48-.64.91-.76a18.43,18.43,0,0,1,0,1.93c-.06.58.17.7.68.69,1.22,0,2.45,0,3.67,0,.75,0,1.64.3,2.2-.14s.25-1.3.42-2c0-.06,0-.12,0-.19h1.49a4.24,4.24,0,0,1-.12.65c-.35,1,.17,1.35,1.09,1.51a40.27,40.27,0,0,0,9.19.52,10.72,10.72,0,0,0,6.7-2.41c.55-.48,1.2-.92,1.31-1.75a9.08,9.08,0,0,0,2.59-2.94c0,.69,0,1.38,0,2.07a5.28,5.28,0,0,0,4.68,5.18,13.13,13.13,0,0,0,5.3-.44c1.78-.43,1.78-.44,1.91-2.24a2.38,2.38,0,0,1,.53-.18c.94-.1,1.35-.53,1.42-1.54.1-1.42.43-2.82.66-4.23.07.17.15.34.2.52a10.47,10.47,0,0,0,7.46,7.5,23.19,23.19,0,0,0,11.51,0c2-.42,2-.45,2.29-2.4.92-.16,1.3-.68,1.43-1.64.27-2,.7-4,1.09-6.07-.83.29-1.53.55-2.25.77a16.52,16.52,0,0,1-8,.85c-2.09-.39-3.8-1.28-4.38-3.55h11.29c2.34,0,2.34,0,2.69-2.28,1.37-.09,1.38-.09,1.6-1.49s.54-2.84.64-4.27c.3-4.41-.69-8.36-4.74-10.82a11.42,11.42,0,0,0-13.08,1.2,34.45,34.45,0,0,0-3.57,4,5.43,5.43,0,0,0-1.45,1.81,21.58,21.58,0,0,0-2.86,14.79,6.07,6.07,0,0,1-2.61.19,1.94,1.94,0,0,1-1.84-2.49c.1-.59.19-1.17.29-1.76L176,94.4h.37c2.48,0,2.48,0,2.74-2.45.7-.05,1.36,0,1.43-1.06.12-1.84.45-3.67.72-5.5.08-.52-.08-.65-.58-.63-.78,0-1.57,0-2.35,0-.56,0-.86,0-.67-.75.26-1,.33-2,.55-3,.12-.54,0-.71-.56-.7-2,0-4.08.06-6.12,0-.73,0-.92.27-1,.88s-.22,1-.33,1.45c-1.61,0-1.44-.33-1.74,1.43q-1.66,9.6-3.29,19.22a7.94,7.94,0,0,0-5-6.48,15.46,15.46,0,0,1-2.91-1.48,1.9,1.9,0,0,1-1-1.78,21.79,21.79,0,0,1,5,0c.78,0,1.77.53,2.25,0s.33-1.47.47-2.24a3.77,3.77,0,0,1,.75,0c.66.16.93,0,1-.74.17-1.68.44-3.36.72-5,.11-.65,0-.94-.74-1a38.08,38.08,0,0,0-7.23-.4c-3.75.24-7.09,1.32-9.17,4.79Zm-36.74,6.58c0,.4,0,.81-.11,1.21q-1.47,9.37-3,18.74c-.1.6,0,.77.62.75,1.63,0,3.26,0,4.89,0,2.25,0,2.25,0,2.5-2.27,1.65-.18,1.64-.18,1.86-1.51q1.15-7,2.31-13.91,1.65-9.92,3.32-19.84c.12-.73,0-.95-.8-.93-2.85,0-5.71,0-8.56,0-.81,0-1.8-.25-2.39.12s-.62,1.37-.9,2.09c-1.51-.08-1.51-.08-2,1.28s-.8,2.44-1.21,3.66q-1.77,5.24-3.55,10.48c0-.34,0-.69-.05-1-.11-5.27-.22-10.54-.29-15.8,0-.66-.18-.83-.84-.82-2.76,0-5.52,0-8.28,0C94,78,94,78,93.65,80a2,2,0,0,1-.13.35,5.83,5.83,0,0,1-.75,0c-.75-.11-1.06.13-1.19,1-1.21,7.51-2.49,15-3.75,22.52-.66,3.89-1.31,7.78-2,11.67-.14.77,0,1.07.86,1,1.38-.07,2.76,0,4.14,0,.78,0,1.71.31,2.29-.14s.32-1.41.52-2.12a3.91,3.91,0,0,1,.83-.06c.61.09.81-.21.9-.76q.56-3.51,1.17-7c.48-2.76,1-5.52,1.47-8.29,0,.34.06.69.07,1q.2,7.8.39,15.61c0,.38,0,.75,0,1.13s.22.65.7.63c.75,0,1.5,0,2.26,0,2.38,0,2.38,0,3.07-2.27,1,.09,1.38-.37,1.66-1.29.59-1.94,1.34-3.84,2-5.76Q110.3,101.44,112.37,95.75Z"/><path class="cls-1" d="M222.8,84.5c-.21-1.14-.45-2.27-.63-3.42-.1-.61-.37-.79-1-.79-3,0-5.9,0-8.86,0q-16.4,0-32.79,0c-.81,0-1.09-.1-.87-1,.48-1.95,1-3.87,1.58-5.81.17-.62.54-.73,1.11-.72,3.3,0,6.6,0,9.89,0h27.51c1.15,0,1.16,0,.79-1.05-.68-2-1.51-3.85-2.31-5.76A1.15,1.15,0,0,0,216,65.2q-15.36,0-30.72,0h-.66c-1.08,0-1.08,0-.6-1,.95-1.95,2-3.83,3.09-5.71a1.54,1.54,0,0,1,1.58-.84q11.45,0,22.9,0a1.74,1.74,0,0,0,1.07-.14c-1.14-1.93-2.56-3.64-3.77-5.49a4,4,0,0,0-4-2c-3.45.16-6.91,0-10.36,0-.33,0-.66,0-1.18-.05.53-.63.91-1.15,1.36-1.61,1.64-1.69,3.25-3.41,5-4.94.25-.21.58-.41.52-.83,9.45-8.48,20.33-14.34,32.79-16.75,25.54-5,47.79,1.7,66.18,20.16a66.82,66.82,0,0,1,19.28,39.28c3.15,24-4,44.73-21.29,61.73A68.47,68.47,0,0,1,264.07,165a71.35,71.35,0,0,1-63.59-16.31c-.09-.08-.2-.15-.3-.23,2.18-2.16,4.41-4.28,6.39-6.64.3-.35.58-.71.89-1.09a1.6,1.6,0,0,0-1-.12c-4.21,0-8.42,0-12.62,0a1.61,1.61,0,0,1-1.42-.67,71.54,71.54,0,0,1-4.65-6.51c.32-.31.68-.17,1-.17,7.66,0,15.32,0,23,0a1.68,1.68,0,0,0,1.69-1q1.64-2.86,3.13-5.8c.38-.74.2-.84-.55-.84-10.43,0-20.85,0-31.28,0A1.58,1.58,0,0,1,183,124.6c-.84-2.09-1.75-4.15-2.44-6.42h1.2q18.61,0,37.21,0c.75,0,1.11-.17,1.3-.94.47-1.88,1.05-3.74,1.59-5.6a12.87,12.87,0,0,0,7.86,5.07,19.58,19.58,0,0,0,8-.24c2-.4,2-.39,2.35-2.36,1.12-.11,2-.5,1.94-1.83a8.35,8.35,0,0,0,13.78,1.93l.65-.24c0,.56,0,1.13-.05,1.68s.18.75.74.73c1.19,0,2.37,0,3.56,0,.78,0,1.77.32,2.26-.14s.33-1.4.46-2.14h2.9a15.7,15.7,0,0,1-.27,1.76c-.15.58.1.61.55.61,1.66,0,3.33,0,5,0,2.26,0,2.26,0,2.46-2.25a5.74,5.74,0,0,1,.94,0c.59.07.83-.17.92-.75.43-2.85.87-5.7,1.35-8.54a45.43,45.43,0,0,1,1.5-7.07c.93-1,1.82-2,3.41-1.87-.11.39-.21.72-.29,1.05-1.08,4.32-1.55,8.65-.12,13,2.34,7.08,9.32,9.07,15,4.3.13-.11.22-.33.5-.19a10.58,10.58,0,0,1-.17,1.47c-.18.71.1.85.75.83,1.44,0,2.89,0,4.33,0,2.29,0,2.29,0,2.58-2.28a2.38,2.38,0,0,1,.28,0c1.38,0,1.37-.05,1.58-1.38Q307.82,105.37,309,98q1.55-9.61,3.12-19.21c.1-.59,0-.84-.67-.81-1.5.05-3,0-4.52,0-.75,0-1.66-.2-2.19.15s-.33,1.26-.47,1.93c0,.06,0,.12-.05.18a5.62,5.62,0,0,1-.84,0c-.77-.13-1.08.15-1.16,1-.17,1.8-.45,3.59-.69,5.38l-.6-.45a8.6,8.6,0,0,0-10-.56,26,26,0,0,0-3.79,3.21A11,11,0,0,0,284,92.1a23.51,23.51,0,0,1,2.17-6.87c.28-.59.26-.77-.47-.82a5.91,5.91,0,0,0-5,2.41c-.52.59-1,1.23-1.57,2,.19-1.15.32-2.11.51-3.06.14-.68.07-1-.78-1-1.25.07-2.51,0-3.76,0-.78,0-1.77-.33-2.27.15s-.36,1.4-.52,2.14a2.93,2.93,0,0,1-.56,0c-.88-.19-1.15.24-1.26,1.06a35.53,35.53,0,0,1-.78,4.57c-.05-.34-.11-.68-.15-1-.48-4-2.6-6.38-6.52-7.23a23.39,23.39,0,0,0-11.31.7c-1.05.29-2,.6-2,1.91-.58.14-1.15.31-1.73.4a2,2,0,0,0-1.89,2.09c-.14,1.63-.5,3.25-.77,4.92,1-.26,1.92-.52,2.84-.7a22.78,22.78,0,0,1,8.22-.3,2.14,2.14,0,0,1,2,1.72l-.74.07c-3.53.22-6.86,1-9.56,3.49a2,2,0,0,0-1,.3,9.1,9.1,0,0,0-5.31,6.92,13.18,13.18,0,0,1-3.46,1.15,7,7,0,0,1-8.69-5.22,14.35,14.35,0,0,1-.29-5.33A14.61,14.61,0,0,1,232,88.93a.17.17,0,0,0,.21-.17l0,0a9.33,9.33,0,0,1,8-1.13,16.38,16.38,0,0,1,3.88,1.71l.46-3.06a7.6,7.6,0,0,1,.93.44c.46.29.63.22.71-.34.32-2.26.68-4.52,1-6.77.05-.34.09-.58-.32-.73-3.42-1.21-6.89-2.06-10.57-1.51a18.54,18.54,0,0,0-8.21,3.86c-.36-.11-.59.14-.84.3a12.12,12.12,0,0,0-2.92,2.59,1.1,1.1,0,0,1-1.54.43Z"/><path class="cls-3" d="M98,98.07c-.49,2.76-1,5.52-1.47,8.29q-.61,3.51-1.17,7c-.09.55-.29.84-.9.76a3.9,3.9,0,0,0-.83.06c-1.6,0-3.19-.09-4.79,0-.78,0-.93-.21-.8-.95q2.06-12,4.06-24.08c.49-2.93.94-5.87,1.41-8.8a2,2,0,0,0,.13-.35C94,78,94,78,95.94,78c2.76,0,5.52,0,8.28,0,.66,0,.83.16.84.82.07,5.27.19,10.54.29,15.8,0,.34,0,.69.05,1q0,2,0,4l.2,0,6.53-19.48c.28-.72.37-1.75.9-2.09s1.58-.12,2.39-.12c2.85,0,5.71,0,8.56,0,.78,0,.93.2.8.93q-1.68,9.91-3.32,19.84-1.16,7-2.31,13.91c-.22,1.33-.21,1.33-1.86,1.51-1.72,0-3.45-.09-5.17,0-.81,0-1-.16-.83-1,1.31-8,2.58-16.08,3.85-24.12a4.81,4.81,0,0,0,0-.74l-.19,0-2.6,7.5q-2.07,5.69-4.14,11.38c-.69,1.91-1.44,3.81-2,5.76-.28.92-.7,1.38-1.66,1.29s-2.19-.09-3.29,0c-.64,0-.76-.21-.78-.8q-.27-12.51-.59-25c0-.24,0-.47,0-.71h-.2Z"/><path class="cls-4" d="M188.2,104.26c.58,2.27,2.29,3.16,4.38,3.55a16.52,16.52,0,0,0,8-.85c.71-.22,1.42-.48,2.25-.77-.38,2.08-.82,4.07-1.09,6.07-.13,1-.5,1.48-1.43,1.64a26.37,26.37,0,0,1-10.08.51,10.72,10.72,0,0,1-9.34-8.57,21.12,21.12,0,0,1,1.79-14.27c.15-.3.43-.56.31-.95a34.46,34.46,0,0,1,3.57-4,11.42,11.42,0,0,1,13.08-1.2c4,2.46,5,6.41,4.74,10.82-.1,1.43-.42,2.85-.64,4.27s-.23,1.4-1.6,1.49l-12.2,0C187.75,101.93,187.72,102,188.2,104.26Zm7-8.37c2.25.14,2.31.08,2-2.14,0-.09,0-.19,0-.28a3.13,3.13,0,0,0-2.72-2.7,4.51,4.51,0,0,0-4.91,2.77,6.56,6.56,0,0,0-.65,1.85c-.09.41,0,.55.47.54C191.29,95.91,193.23,95.9,195.17,95.89Z"/><path class="cls-4" d="M164.34,109.69a9.08,9.08,0,0,1-2.59,2.94,9.82,9.82,0,0,1-3.44,1.45,32.71,32.71,0,0,1-12.41-.29c-.5-.1-.63-.36-.53-.86.2-1.08.33-2.16.49-3.24,0-.18.06-.37.1-.55.19-.69-.05-1.74.47-2s1.35.27,2.05.41a15.86,15.86,0,0,0,7.26.26,2.26,2.26,0,0,0,.79-4.24,15.12,15.12,0,0,0-1.37-.81c-.93-.51-1.89-1-2.81-1.51a7.94,7.94,0,0,1-4.11-7.77,17.39,17.39,0,0,1,.87-4.29h0c.2,0,.18-.15.2-.27,2.08-3.47,5.43-4.55,9.17-4.79a38.08,38.08,0,0,1,7.23.4c.72.09.84.38.74,1-.28,1.67-.55,3.35-.72,5-.08.75-.35.91-1,.74a3.77,3.77,0,0,0-.75,0c-.65-.06-1.31-.13-2-.17a13,13,0,0,0-3.83.15,2.08,2.08,0,0,0-1.9,2.26,1.9,1.9,0,0,0,1,1.78,15.46,15.46,0,0,0,2.91,1.48,7.94,7.94,0,0,1,5,6.48A13.05,13.05,0,0,1,164.34,109.69Z"/><path class="cls-4" d="M178.88,108.29c-.23,1.41-.57,2.81-.66,4.23-.07,1-.48,1.45-1.42,1.54a2.38,2.38,0,0,0-.53.18,22.37,22.37,0,0,1-4.1.47c-2.75,0-4.76-1.35-5.5-3.71a8.22,8.22,0,0,1-.36-3.44c.6-5.1,1.46-10.17,2.3-15.23q.81-4.86,1.63-9.72c.11-.48.26-1,.33-1.45s.27-.9,1-.88c2,.07,4.08,0,6.12,0,.58,0,.68.16.56.7-.22,1-.3,2.05-.55,3-.19.73.11.77.67.75.78,0,1.57,0,2.35,0,.49,0,.66.11.58.63-.28,1.83-.6,3.66-.72,5.5-.07,1.1-.74,1-1.43,1.06a4.45,4.45,0,0,0-.46-.06c-2.53-.06-2.53-.06-2.65,2.49l-1.49,8.78c-.1.59-.19,1.17-.29,1.76a1.94,1.94,0,0,0,1.84,2.49,6.07,6.07,0,0,0,2.61-.19C179.12,107.54,178.77,108,178.88,108.29Z"/><path class="cls-4" d="M222.8,84.5v.07c-.38.82-.79,1.63-1.13,2.47a31.32,31.32,0,0,0-1.54,5.51c-.05.25.11.7-.52.64a3.52,3.52,0,0,0-4,3.3h0c-.23,0-.18.17-.19.31a33.18,33.18,0,0,0-1.65,7c-.56,3.21-1,6.42-1.54,9.64-.09.56-.27.86-.89.76a4.41,4.41,0,0,0-.84,0c-1.85,0-3.7,0-5.54,0-.45,0-.68,0-.59-.61q1.18-7.08,2.3-14.18,1-6.16,1.95-12.33c0-.18.09-.37.12-.55.35-1.74.35-1.74,2.18-1.74,1.47,0,2.95,0,4.42,0,.6,0,.77.16.65.74a25.35,25.35,0,0,0-.39,2.94C217.47,86.09,219.36,83.87,222.8,84.5Z"/><path class="cls-5" d="M215.62,96.49a3.52,3.52,0,0,1,4-3.3c.63.06.47-.39.52-.64A31.32,31.32,0,0,1,221.68,87c.34-.84.75-1.65,1.13-2.47a1.1,1.1,0,0,0,1.54-.43,12.12,12.12,0,0,1,2.92-2.59c.25-.17.49-.41.84-.3-.4.84-1.21,1.33-1.74,2.06-5.06,7-6.08,14.65-3.79,22.76,1.33,4.73,4.72,7.54,9.6,8.46a21.24,21.24,0,0,0,7.93-.4c-.37,2-.37,2-2.35,2.36a19.58,19.58,0,0,1-8,.24,12.87,12.87,0,0,1-7.86-5.07c-2.55-4-3.11-8.5-2.71-13.15a7.85,7.85,0,0,1,.12-1.59c.28-.93-.26-1-.93-1.13A5.82,5.82,0,0,0,215.62,96.49Z"/><path class="cls-5" d="M178.88,108.29c-.11-.34.24-.75-.17-1a21.58,21.58,0,0,1,2.86-14.79A5.43,5.43,0,0,1,183,90.64c.12.39-.17.65-.31.95a21.12,21.12,0,0,0-1.79,14.27,10.72,10.72,0,0,0,9.34,8.57,26.37,26.37,0,0,0,10.08-.51c-.33,1.94-.32,2-2.29,2.4a23.19,23.19,0,0,1-11.51,0,10.47,10.47,0,0,1-7.46-7.5C179,108.63,179,108.47,178.88,108.29Z"/><path class="cls-5" d="M93.52,80.3c-.47,2.94-.92,5.87-1.41,8.8q-2,12-4.06,24.08c-.13.74,0,1,.8.95,1.59,0,3.19,0,4.79,0-.2.72,0,1.7-.52,2.12s-1.51.12-2.29.14c-1.38,0-2.76,0-4.14,0-.85,0-1-.25-.86-1,.69-3.89,1.35-7.78,2-11.67,1.26-7.5,2.54-15,3.75-22.52.14-.84.44-1.07,1.19-1A5.83,5.83,0,0,0,93.52,80.3Z"/><path class="cls-5" d="M170.25,82.62q-.81,4.86-1.63,9.72c-.84,5.07-1.7,10.13-2.3,15.23a8.22,8.22,0,0,0,.36,3.44c.74,2.36,2.75,3.7,5.5,3.71a22.37,22.37,0,0,0,4.1-.47c-.13,1.8-.13,1.81-1.91,2.24a13.13,13.13,0,0,1-5.3.44,5.28,5.28,0,0,1-4.68-5.18c0-.69,0-1.38,0-2.07a13.05,13.05,0,0,0,.88-6.42q1.64-9.61,3.29-19.21C168.81,82.29,168.64,82.63,170.25,82.62Z"/><path class="cls-5" d="M123.5,100.66a17.73,17.73,0,0,0-1.26,4.56,12.27,12.27,0,0,0,.4,4.47c1.11,3.69,4.62,5.59,8.74,4.83a10.3,10.3,0,0,0,5.91-3.32c-.08.88-.09,1.52-.2,2.14s.09.74.68.73c1.44,0,2.89,0,4.33,0,0,.06,0,.12,0,.19-.17.67.07,1.58-.42,2s-1.45.12-2.2.14c-1.22,0-2.45,0-3.67,0-.51,0-.74-.11-.68-.69a18.43,18.43,0,0,0,0-1.93c-.43.12-.62.51-.91.76a9.4,9.4,0,0,1-9.13,2,6,6,0,0,1-4.29-4.26A11.83,11.83,0,0,1,122.19,102,3.19,3.19,0,0,1,123.5,100.66Z"/><path class="cls-5" d="M208.64,87.08q-1,6.16-1.95,12.33-1.14,7.09-2.3,14.18c-.09.57.13.61.59.61,1.85,0,3.7,0,5.54,0-.2.72,0,1.74-.52,2.11s-1.45.13-2.2.14c-1.48,0-3-.06-4.43,0-.95.06-1-.32-.89-1.08.46-2.72.88-5.45,1.33-8.17,1-6.44,2.13-12.87,3.11-19.31C207.12,86.54,208,87.26,208.64,87.08Z"/><path class="cls-5" d="M98,98.07l1.68-10.47h.2c0,.24,0,.47,0,.71q.3,12.51.59,25c0,.59.13.82.78.8,1.09,0,2.19,0,3.29,0-.69,2.27-.69,2.27-3.07,2.27-.75,0-1.51,0-2.26,0-.48,0-.7-.14-.7-.63s0-.75,0-1.13q-.2-7.8-.39-15.61C98.06,98.75,98,98.41,98,98.07Z"/><path class="cls-5" d="M112.37,95.75l2.6-7.5.19,0a4.81,4.81,0,0,1,0,.74c-1.27,8-2.53,16.09-3.85,24.12-.14.83,0,1,.83,1,1.72,0,3.44,0,5.17,0-.24,2.27-.24,2.27-2.5,2.27-1.63,0-3.26,0-4.89,0-.61,0-.71-.15-.62-.75q1.52-9.37,3-18.74C112.33,96.57,112.34,96.16,112.37,95.75Z"/><path class="cls-5" d="M149.13,89.16a17.39,17.39,0,0,0-.87,4.29,7.94,7.94,0,0,0,4.11,7.77c.92.53,1.87,1,2.81,1.51a15.12,15.12,0,0,1,1.37.81,2.26,2.26,0,0,1-.79,4.24,2.37,2.37,0,0,0-1.41-2.07c-1.21-.71-2.47-1.36-3.7-2a7.94,7.94,0,0,1-4.39-6.87l.47-4A7,7,0,0,1,149.13,89.16Z"/><path class="cls-5" d="M145.86,109.69c-.16,1.08-.29,2.17-.49,3.24-.09.5,0,.76.53.86a32.71,32.71,0,0,0,12.41.29,9.82,9.82,0,0,0,3.44-1.45c-.1.83-.76,1.27-1.31,1.75a10.72,10.72,0,0,1-6.7,2.41,40.27,40.27,0,0,1-9.19-.52c-.92-.16-1.44-.48-1.09-1.51a4.27,4.27,0,0,0,.12-.65,14.7,14.7,0,0,0,.6-3.15c.12-.54.17-1.1.26-1.65Z"/><path class="cls-5" d="M126.78,87.47,126,92.21a27.28,27.28,0,0,1,7.09-1.27,14,14,0,0,1,4,.24A2.75,2.75,0,0,1,139,95.1a.42.42,0,0,1-.5.29l-1.4-.12a2.13,2.13,0,0,0-1.93-1.79,22.73,22.73,0,0,0-8.31.29,23.4,23.4,0,0,0-2.27.59c-.44.13-.58,0-.5-.42.32-1.82.59-3.65.94-5.46C125.22,87.56,126.17,87.76,126.78,87.47Z"/><path class="cls-5" d="M188.2,104.26c-.48-2.28-.45-2.32,1.78-2.32l12.2,0c-.36,2.28-.36,2.28-2.69,2.28Z"/><path class="cls-5" d="M112.12,80.23,105.6,99.71l-.2,0q0-2,0-4,1.78-5.24,3.55-10.48c.41-1.22.8-2.44,1.21-3.66S110.61,80.15,112.12,80.23Z"/><path class="cls-5" d="M156.29,93.53a2.08,2.08,0,0,1,1.9-2.26,13,13,0,0,1,3.83-.15c.65,0,1.31.11,2,.17-.13.77,0,1.77-.47,2.24s-1.48,0-2.25,0A21.79,21.79,0,0,0,156.29,93.53Z"/><path class="cls-5" d="M176,94.4c.12-2.55.12-2.55,2.65-2.49a4.45,4.45,0,0,1,.46.06c-.25,2.46-.25,2.46-2.74,2.45Z"/><path class="cls-5" d="M215.44,96.79c0-.13,0-.31.19-.31C215.67,96.65,215.54,96.72,215.44,96.79Z"/><path class="cls-5" d="M123.66,100.43c0,.14,0,.27-.17.24C123.47,100.54,123.56,100.48,123.66,100.43Z"/><path class="cls-5" d="M149.31,88.91c0,.12,0,.27-.2.27Z"/><path class="cls-3" d="M304.21,80.29c0-.06,0-.12.05-.18.14-.67.07-1.67.47-1.93s1.45-.14,2.19-.15c1.51,0,3,0,4.52,0,.68,0,.77.23.67.81Q310.54,88.43,309,98q-1.18,7.33-2.33,14.67c-.21,1.33-.2,1.33-1.58,1.38a2.39,2.39,0,0,0-.28,0c-1.25,0-2.51,0-3.76,0-2,0-2,0-1.74-2,0-.14,0-.28,0-.57a9.87,9.87,0,0,1-6.5,3,8.52,8.52,0,0,1-8.7-6c-2.41-6.67-1.17-12.93,2.52-18.83.18-.28.49-.5.47-.89a26,26,0,0,1,3.79-3.21,8.6,8.6,0,0,1,10,.56l.6.45L303,88.2ZM292.74,94.42c-.14-.05-.14.06-.17.14a12.86,12.86,0,0,0-1.05,10.05c.65,2.21,2.69,3.07,4.88,2.35a6.15,6.15,0,0,0,1.39-.76c3.49-2.79,4-9.62,2.57-12.61a3.26,3.26,0,0,0-2.2-1.9,4.68,4.68,0,0,0-5.45,2.75Z"/><path class="cls-3" d="M146.67,92.21a7.83,7.83,0,0,0-6.52-7.76,23.88,23.88,0,0,0-11.14.61c-1.36.33-2.28.87-2.23,2.41L126,92.21a26.74,26.74,0,0,1,7.08-1.27,14,14,0,0,1,4,.24A2.75,2.75,0,0,1,139,95.1a.43.43,0,0,1-.5.3l-1.4-.12a23.59,23.59,0,0,0-3.76.09,13.66,13.66,0,0,0-8,3.21c-.62.56-1.15,1.23-1.72,1.85,0,.15,0,.28-.17.25a17.89,17.89,0,0,0-1.25,4.54,12.51,12.51,0,0,0,.39,4.48c1.12,3.68,4.62,5.59,8.74,4.83a10.33,10.33,0,0,0,5.92-3.32c-.08.88-.09,1.52-.2,2.14s.09.74.68.73c1.44,0,2.88,0,4.32,0h1.49a13.92,13.92,0,0,0,.6-3.15c.12-.54.18-1.1.26-1.65q.9-6.24,1.81-12.49c.16-1.35.32-2.69.47-4C146.7,92.58,146.68,92.4,146.67,92.21Zm-8.75,9.62a9.41,9.41,0,0,1-1.82,4.75,3.72,3.72,0,0,1-1.12,1,1,1,0,0,1-.23.12,3.22,3.22,0,0,1-1.38.52,3,3,0,0,1-3.08-.86,3.14,3.14,0,0,1-.41-3.41,3,3,0,0,1,.4-.94,4,4,0,0,1,2.07-1.52,11.5,11.5,0,0,1,4.8-.6C137.76,100.92,138,101.16,137.92,101.83Z"/><path class="cls-1" d="M135.6,104.07a21.59,21.59,0,0,1-.62,3.52,1,1,0,0,1-.23.12,3.22,3.22,0,0,1-1.38.52,3,3,0,0,1-3.08-.86,3.14,3.14,0,0,1-.41-3.41,3,3,0,0,1,.4-.94,34,34,0,0,1,4.05-.3C135.3,102.7,135.71,103,135.6,104.07Z"/><path class="cls-3" d="M248.15,98.74c2.7-2.49,6-3.26,9.56-3.49l.74-.07,2.9.2c.23,0,.48.08.63-.24a2.83,2.83,0,0,0-1.81-4,13.52,13.52,0,0,0-4-.26A26.49,26.49,0,0,0,249,92.21l.77-5.16c0-1.31.9-1.62,2-1.91a23.39,23.39,0,0,1,11.31-.7c3.92.86,6,3.27,6.52,7.23,0,.34.1.68.15,1-.38,2.75-.76,5.51-1.15,8.27-.58,4.09-1.16,8.18-1.76,12.27,0,.31.1.81-.47.88h-2.9c-.9,0-1.81-.06-2.71,0-.5,0-.74-.09-.65-.66s.11-1.34.17-2.28a10.93,10.93,0,0,1-3.78,2.84l-.65.24a13.26,13.26,0,0,1-4.09.39c-2.86-.3-5-1.66-5.93-4.45C244.51,106,245,102.07,248.15,98.74Zm7.62,9.51A3.76,3.76,0,0,0,258.7,107a8.46,8.46,0,0,0,2.21-5.45c0-.58-.33-.61-.7-.63a11.15,11.15,0,0,0-5.08.67,3.56,3.56,0,0,0-2.05,1.82,3.47,3.47,0,0,0,0,3.72A2.59,2.59,0,0,0,255.77,108.26Z"/><path class="cls-3" d="M240.11,114.13a21.24,21.24,0,0,1-7.93.4c-4.88-.92-8.26-3.73-9.6-8.46-2.29-8.11-1.26-15.8,3.79-22.76.53-.73,1.34-1.22,1.74-2.06a18.54,18.54,0,0,1,8.21-3.86c3.68-.56,7.15.3,10.57,1.51.42.15.38.39.32.73-.36,2.26-.72,4.51-1,6.77-.08.56-.25.63-.71.34a7.6,7.6,0,0,0-.93-.44A10.51,10.51,0,0,0,237.76,85a7.58,7.58,0,0,0-5.54,3.73l0,0c-.16-.05-.17.07-.21.17a14.61,14.61,0,0,0-2.59,7.64,14.35,14.35,0,0,0,.29,5.33,7,7,0,0,0,8.69,5.22,13.18,13.18,0,0,0,3.46-1.15l1.21-.42-1,6.75C242.08,113.62,241.23,114,240.11,114.13Z"/><path class="cls-3" d="M272.34,87.08c.15-.73.07-1.72.52-2.14s1.5-.13,2.27-.15c1.25,0,2.51,0,3.76,0,.85,0,.92.3.78,1-.19,1-.32,1.91-.51,3.06.59-.76,1-1.4,1.57-2a5.91,5.91,0,0,1,5-2.41c.73,0,.75.24.47.82A23.48,23.48,0,0,0,284,92.09c-.13.8-.39,1.26-1.4,1a2.27,2.27,0,0,0-2.28,1.16,8.56,8.56,0,0,0-1.52,3.56,45.43,45.43,0,0,0-1.5,7.07c-.48,2.84-.92,5.69-1.35,8.54-.09.58-.32.82-.92.75a5.74,5.74,0,0,0-.94,0c-1.79,0-3.58,0-5.36,0-.49,0-.74,0-.64-.66.67-4,1.3-7.92,1.94-11.88Q271.19,94.37,272.34,87.08Z"/><path class="cls-5" d="M278.8,97.84a8.56,8.56,0,0,1,1.52-3.56,2.27,2.27,0,0,1,2.28-1.16c1,.23,1.27-.23,1.4-1a11,11,0,0,1,3.1-3.28c0,.39-.29.61-.47.89-3.69,5.9-4.93,12.16-2.52,18.83a8.52,8.52,0,0,0,8.7,6,9.87,9.87,0,0,0,6.5-3c0,.29,0,.43,0,.57-.23,2-.23,2,1.74,2,1.25,0,2.51,0,3.76,0-.29,2.28-.29,2.28-2.58,2.28-1.44,0-2.89,0-4.33,0-.65,0-.93-.12-.75-.83a10.58,10.58,0,0,0,.17-1.47c-.28-.14-.38.08-.5.19-5.7,4.76-12.68,2.78-15-4.3-1.43-4.33-1-8.67.12-13,.08-.33.18-.66.29-1.05C280.61,95.84,279.73,96.88,278.8,97.84Z"/><path class="cls-5" d="M242.05,112.3l1-6.75-1.21.42A9.1,9.1,0,0,1,247.18,99a2,2,0,0,1,1-.3c-3.13,3.33-3.65,7.24-2.33,11.42.88,2.79,3.06,4.15,5.93,4.45a13.26,13.26,0,0,0,4.09-.39A8.35,8.35,0,0,1,242.05,112.3Z"/><path class="cls-5" d="M272.34,87.08q-1.16,7.29-2.31,14.58c-.63,4-1.27,7.92-1.94,11.88-.1.62.15.66.64.66,1.79,0,3.58,0,5.36,0-.2,2.25-.2,2.25-2.46,2.25-1.66,0-3.33,0-5,0-.45,0-.71,0-.55-.61a15.7,15.7,0,0,0,.27-1.76c.57-.07.43-.57.47-.88.61-4.09,1.18-8.18,1.76-12.27.39-2.76.77-5.51,1.15-8.27a35.49,35.49,0,0,0,.78-4.57c.11-.82.38-1.25,1.26-1.06A2.93,2.93,0,0,0,272.34,87.08Z"/><path class="cls-5" d="M249.8,87.06,249,92.21a26.49,26.49,0,0,1,7.14-1.28,13.52,13.52,0,0,1,4,.26,2.83,2.83,0,0,1,1.81,4c-.15.32-.4.25-.63.24l-2.9-.2a2.14,2.14,0,0,0-2-1.72,22.78,22.78,0,0,0-8.22.3c-.92.18-1.82.45-2.84.7.27-1.67.63-3.28.77-4.92a2,2,0,0,1,1.89-2.09C248.65,87.37,249.23,87.19,249.8,87.06Z"/><path class="cls-5" d="M232.21,88.78A7.58,7.58,0,0,1,237.76,85a10.51,10.51,0,0,1,6.79,1.25l-.46,3.06a16.38,16.38,0,0,0-3.88-1.71A9.33,9.33,0,0,0,232.21,88.78Z"/><path class="cls-5" d="M256.49,114a10.93,10.93,0,0,0,3.78-2.84c-.07.94-.08,1.62-.17,2.28s.15.67.65.66c.9,0,1.81,0,2.71,0-.13.73,0,1.73-.46,2.14s-1.49.13-2.26.14c-1.19,0-2.38,0-3.56,0-.56,0-.8-.13-.74-.73S256.48,114.55,256.49,114Z"/><path class="cls-5" d="M304.21,80.29,303,88.2l-1.48-1.59c.24-1.79.52-3.58.69-5.38.08-.8.38-1.09,1.16-1A5.62,5.62,0,0,0,304.21,80.29Z"/><path class="cls-5" d="M232,88.93c0-.1.05-.22.21-.17A.17.17,0,0,1,232,88.93Z"/><path class="cls-2" d="M145.86,109.69l-1.42-.38,1.81-12.5a7.94,7.94,0,0,0,4.39,6.87c1.23.68,2.48,1.33,3.7,2a2.37,2.37,0,0,1,1.41,2.07,15.86,15.86,0,0,1-7.26-.26c-.7-.15-1.57-.66-2.05-.41s-.28,1.32-.47,2C145.92,109.31,145.9,109.5,145.86,109.69Z"/><path class="cls-5" d="M134.75,107.71a19.82,19.82,0,0,0,.71-3.19c.12-1.25,0-1.4-1.28-1.35a12.11,12.11,0,0,0-4.3.79,3.58,3.58,0,0,1,2.47-2.47,11.63,11.63,0,0,1,4.8-.6c.61,0,.87.26.78.94a9.4,9.4,0,0,1-1.82,4.74A3.53,3.53,0,0,1,134.75,107.71Z"/><path class="cls-5" d="M189.52,93.54a4.51,4.51,0,0,1,4.91-2.77,3.13,3.13,0,0,1,2.72,2.7c0,.09,0,.19,0,.28.28,2.21.23,2.28-2,2.14a3.1,3.1,0,0,0-3.46-2.84A5.76,5.76,0,0,0,189.52,93.54Z"/><path class="cls-2" d="M189.52,93.54a5.76,5.76,0,0,1,2.18-.49,3.1,3.1,0,0,1,3.46,2.84c-1.94,0-3.88,0-5.82,0-.43,0-.56-.14-.47-.54A6.56,6.56,0,0,1,189.52,93.54Z"/><path class="cls-1" d="M297.79,106.2a6.15,6.15,0,0,1-1.39.76c-2.19.72-4.23-.14-4.88-2.35a12.86,12.86,0,0,1,1.05-10.05l.17-.14h0l.52-.2a3.78,3.78,0,0,1,5.52,2.71,13.31,13.31,0,0,1,.3,4.38A20.77,20.77,0,0,1,297.79,106.2Z"/><path class="cls-5" d="M297.79,106.2a20.77,20.77,0,0,0,1.27-4.88,13.31,13.31,0,0,0-.3-4.38,3.78,3.78,0,0,0-5.52-2.71l-.52.2a4.68,4.68,0,0,1,5.45-2.75,3.26,3.26,0,0,1,2.2,1.9C301.76,96.58,301.28,103.41,297.79,106.2Z"/><path class="cls-5" d="M292.74,94.42l-.17.14C292.6,94.48,292.6,94.37,292.74,94.42Z"/><path class="cls-5" d="M253.08,103.4a3.56,3.56,0,0,1,2.05-1.82,11.15,11.15,0,0,1,5.08-.67c.37,0,.74.06.7.63A8.46,8.46,0,0,1,258.7,107a3.76,3.76,0,0,1-2.92,1.26,11.05,11.05,0,0,0,1.09-4.14c.07-.72-.21-1-.88-.94A21.78,21.78,0,0,0,253.08,103.4Z"/><path class="cls-1" d="M253.08,103.4a21.78,21.78,0,0,1,2.9-.22c.67,0,1,.21.88.94a11.05,11.05,0,0,1-1.09,4.14,2.59,2.59,0,0,1-2.68-1.13A3.47,3.47,0,0,1,253.08,103.4Z"/></svg>