<svg id="Layer_1" data-name="Layer 1" xmlns="http://www.w3.org/2000/svg" viewBox="0 0 400 190"><defs><style>.cls-1{fill:#d7d7d7;}</style></defs><title>logo bank</title><path class="cls-1" d="M380,5a15,15,0,0,1,15,15V170a15,15,0,0,1-15,15H20A15,15,0,0,1,5,170V20A15,15,0,0,1,20,5H380m0-5H20A20.06,20.06,0,0,0,0,20V170a20.06,20.06,0,0,0,20,20H380a20.06,20.06,0,0,0,20-20V20A20.06,20.06,0,0,0,380,0Z"/><path class="cls-1" d="M194.63,32.67,193,25.33l26.31,13.25-24,13.22,0,.17,1,0c13.5-.39,27-.44,40.49.16,10.08.44,20.14,1.26,30.14,2.59a210.23,210.23,0,0,1,34.42,7.18,101.68,101.68,0,0,1,22.91,9.85,47.28,47.28,0,0,1,13.33,11.36c3.83,5,6,10.51,5.58,16.86a28.8,28.8,0,0,1-5.58,14.8,59.34,59.34,0,0,1-15.3,14.6,112.83,112.83,0,0,1-19.81,10.73,154.85,154.85,0,0,1-24.64,8.29c-7,1.7-14.06,3.23-21.16,4.38C249.2,154,241.62,154.9,234,155.5c-8.12.64-16.28.73-24.43,1.06-.34,0-.68,0-1.13,0l1.61,7.37-26.31-13.25L208,137.31c-4.52.1-8.78.28-13,.27-8,0-16.07.05-24.09-.26q-12.68-.5-25.33-1.67a230.13,230.13,0,0,1-35.62-6A123.63,123.63,0,0,1,83.16,120a55.38,55.38,0,0,1-15.66-11.42C63,103.63,60,98,59.87,91.13A27.15,27.15,0,0,1,64.65,75.8,55.75,55.75,0,0,1,79.09,61.13a107,107,0,0,1,21-11.72,175.18,175.18,0,0,1,27.42-9.1q11.37-2.82,23-4.5c8.35-1.23,16.73-2.13,25.15-2.53,6.05-.29,12.11-.39,18.17-.57Zm13.51,111.15c.32,0,.5.06.68.06a292,292,0,0,0,31.53-1.41,240.15,240.15,0,0,0,25.35-3.87,175.91,175.91,0,0,0,36-11.28,90.47,90.47,0,0,0,17.52-10c4.56-3.42,8.66-7.28,11.36-12.4a16.38,16.38,0,0,0,1.54-12.76,21.49,21.49,0,0,0-5.7-9,49.43,49.43,0,0,0-12.54-8.77c-9.52-4.91-19.68-8-30-10.64A273.82,273.82,0,0,0,254,58c-9-1.22-18-2.28-27-3.07-10.17-.89-20.37-1.42-30.56-2.08-2.32-.15-2.32-.1-2-2.46.19-1.61.36-3.21.55-4.91-.41,0-.71-.07-1-.07A276.39,276.39,0,0,0,153,48a228.32,228.32,0,0,0-26.25,5.2,162.72,162.72,0,0,0-24.85,8.54A86.22,86.22,0,0,0,81.53,73.83c-4,3.32-7.52,7.06-9.66,11.89a16,16,0,0,0,.87,15.43A30,30,0,0,0,81.21,110c6.52,4.76,13.84,8,21.39,10.62a192.2,192.2,0,0,0,30.78,8c8.45,1.49,16.94,2.78,25.44,4,5.13.72,10.3,1.16,15.46,1.61q10.17.89,20.36,1.6c4.3.3,8.61.46,12.91.71,1.24.07,1.36.28,1.22,1.51C208.57,139.92,208.36,141.8,208.14,143.81Zm-.63,11.93c2,0,3.9,0,5.76,0,8.47-.11,16.92-.52,25.34-1.37q7.68-.77,15.32-1.9c4.69-.7,9.37-1.5,14-2.51,5.15-1.13,10.29-2.36,15.32-3.91,6-1.86,12-3.92,17.92-6.24a102.61,102.61,0,0,0,18.66-9.71c6.36-4.18,12.18-8.94,16.69-15.13a29.86,29.86,0,0,0,5.55-12.26,22.9,22.9,0,0,0-3.62-17.15,41.33,41.33,0,0,0-12.14-11.66,90.25,90.25,0,0,0-21.09-10,163.42,163.42,0,0,0-24.46-6.24c-5.22-.92-10.45-1.8-15.71-2.49-4.73-.62-9.49-1.09-14.25-1.39-8.6-.53-17.21-1-25.82-1.26-6.41-.2-12.83,0-19.39,0,2.32.16,4.5.29,6.68.46,6.53.51,13.08,1,19.6,1.58,5.53.52,11,1.14,16.54,1.92,7.13,1,14.26,2.1,21.34,3.42,5.67,1.05,11.29,2.4,16.88,3.79a125.78,125.78,0,0,1,27.9,10.16c5.29,2.76,10.22,6,14.14,10.62A19.47,19.47,0,0,1,333.36,94a17.77,17.77,0,0,1-2.43,11.87c-3,5.34-7.47,9.32-12.36,12.86a96.57,96.57,0,0,1-19.11,10.42,161.14,161.14,0,0,1-18.28,6.4,196.87,196.87,0,0,1-20.85,4.86c-5.25.91-10.54,1.61-15.83,2.31-3.56.47-7.13.83-10.7,1.11-3.83.3-7.66.54-11.5.64-4.71.13-9.43.1-14.15.16-.67,0-.85-.23-.76-.9.22-1.78.37-3.56.56-5.48L185.4,150.65,209,162.53Zm-13.31-129c.06.49.08.76.13,1,.34,1.55.65,3.12,1.07,4.65.24.89-.06,1.07-.89,1.09-6.49.17-13,.21-19.48.62-6.94.44-13.89,1-20.78,1.93-6.67.89-13.29,2.21-19.91,3.47a161.67,161.67,0,0,0-19.17,5A142.14,142.14,0,0,0,88.78,55.84a84,84,0,0,0-14.35,10,43.91,43.91,0,0,0-11.18,14c-3.52,7.42-3.64,14.82.36,22.11,2.91,5.29,7.23,9.28,12.12,12.68a88.94,88.94,0,0,0,22.45,10.79,160.66,160.66,0,0,0,23.27,6c4.82.86,9.65,1.69,14.5,2.34s9.73,1.18,14.61,1.57c6.35.51,12.71.94,19.07,1.2,5.8.24,11.62.23,17.43.3,3.33,0,6.66,0,10,0-3.46-.31-6.93-.48-10.38-.78-7.12-.62-14.24-1.25-21.34-2-5.83-.62-11.67-1.27-17.46-2.19-7.3-1.16-14.6-2.39-21.81-4-6.78-1.5-13.5-3.34-20.15-5.35a89.36,89.36,0,0,1-22.33-10c-4.62-2.95-8.8-6.38-11.61-11.21a16.41,16.41,0,0,1-1.85-13,26.24,26.24,0,0,1,6.72-11.2C81.67,72.08,87.45,68.29,93.57,65a137.7,137.7,0,0,1,25.78-10.48,197.64,197.64,0,0,1,31-6.85q9.27-1.26,18.59-2.14c4-.38,8-.52,12-.63,4.68-.14,9.37-.13,14.05-.2.65,0,.8.3.73.87-.12.93-.21,1.86-.31,2.79s-.16,1.7-.26,2.72L217.7,38.61Z"/><path class="cls-1" d="M207.51,155.74l1.47,6.79L185.4,150.65l22.54-12.42c-.19,1.92-.33,3.7-.56,5.48-.09.67.1.91.76.9,4.72-.05,9.44,0,14.15-.16,3.84-.11,7.67-.34,11.5-.64,3.58-.28,7.15-.64,10.7-1.11,5.29-.69,10.58-1.4,15.83-2.31a196.87,196.87,0,0,0,20.85-4.86,161.14,161.14,0,0,0,18.28-6.4,96.57,96.57,0,0,0,19.11-10.42c4.89-3.54,9.34-7.52,12.36-12.86A17.77,17.77,0,0,0,333.36,94a19.47,19.47,0,0,0-4.68-9.55c-3.92-4.6-8.85-7.86-14.14-10.62a125.78,125.78,0,0,0-27.9-10.16c-5.6-1.4-11.22-2.74-16.88-3.79-7.08-1.32-14.21-2.4-21.34-3.42-5.49-.78-11-1.4-16.54-1.92-6.52-.62-13.07-1.07-19.6-1.58-2.18-.17-4.36-.3-6.68-.46,6.55,0,13-.16,19.39,0,8.61.27,17.22.73,25.82,1.26,4.76.29,9.52.77,14.25,1.39,5.25.69,10.49,1.57,15.71,2.49a163.42,163.42,0,0,1,24.46,6.24,90.25,90.25,0,0,1,21.09,10,41.33,41.33,0,0,1,12.14,11.66,22.9,22.9,0,0,1,3.62,17.15A29.86,29.86,0,0,1,336.52,115c-4.52,6.2-10.34,11-16.69,15.13a102.61,102.61,0,0,1-18.66,9.71c-5.88,2.32-11.88,4.38-17.92,6.24-5,1.55-10.17,2.78-15.32,3.91-4.63,1-9.31,1.82-14,2.51q-7.63,1.14-15.32,1.9c-8.42.85-16.88,1.27-25.34,1.37C211.41,155.76,209.54,155.74,207.51,155.74Z"/><path class="cls-1" d="M194.2,26.76l23.5,11.85L195.16,51c.1-1,.18-1.87.26-2.72s.19-1.86.31-2.79c.07-.58-.07-.88-.73-.87-4.68.07-9.37.07-14.05.2-4,.12-8,.25-12,.63q-9.31.89-18.59,2.14a197.64,197.64,0,0,0-31,6.85A137.7,137.7,0,0,0,93.57,65c-6.12,3.33-11.9,7.12-16.72,12.21a26.24,26.24,0,0,0-6.72,11.2,16.41,16.41,0,0,0,1.85,13c2.8,4.83,7,8.26,11.61,11.21a89.36,89.36,0,0,0,22.33,10c6.65,2,13.37,3.85,20.15,5.35,7.21,1.6,14.51,2.83,21.81,4,5.79.92,11.63,1.57,17.46,2.19,7.1.75,14.22,1.38,21.34,2,3.45.3,6.92.47,10.38.78-3.33,0-6.67,0-10,0-5.81-.07-11.63-.06-17.43-.3-6.36-.26-12.72-.69-19.07-1.2q-7.32-.59-14.61-1.57c-4.85-.65-9.68-1.48-14.5-2.34a160.66,160.66,0,0,1-23.27-6,88.94,88.94,0,0,1-22.45-10.79c-4.9-3.4-9.22-7.39-12.12-12.68-4-7.29-3.88-14.69-.36-22.11a43.91,43.91,0,0,1,11.18-14,84,84,0,0,1,14.35-10,142.14,142.14,0,0,1,26.39-11.25,161.67,161.67,0,0,1,19.17-5c6.62-1.26,13.23-2.58,19.91-3.47,6.89-.92,13.84-1.49,20.78-1.93,6.48-.41,13-.45,19.48-.62.82,0,1.13-.2.89-1.09-.41-1.53-.72-3.1-1.07-4.65C194.27,27.52,194.26,27.25,194.2,26.76Z"/><path class="cls-1" d="M221.25,91.42c-.82,2.2-1.58,4.2-2.33,6.21-1.86,5-3.73,10-5.57,15a1.21,1.21,0,0,1-1.36.94c-3.5,0-7,0-10.5,0-.3,0-.6,0-1.06-.07l11.09-27.87-2.6-.53c.33-.51.59-1,.87-1.37l5.54-8.13a1.13,1.13,0,0,0,.2-.31c.35-1.42,1.35-1.54,2.62-1.5,3.12.09,6.25.06,9.37,0a1.12,1.12,0,0,1,1.32,1c1.6,6.35,3.24,12.69,4.87,19a1.32,1.32,0,0,0,.33.57,3.67,3.67,0,0,1,.26-.56c4.27-6.34,8.56-12.68,12.81-19a2,2,0,0,1,2-1c3.31.06,6.62,0,9.94,0,1.34,0,1.35,0,1.32,1.31q-.26,13.68-.52,27.36c-.06,3.34-.14,6.68-.14,10,0,.89-.3,1.09-1.13,1.08-3.44,0-6.87,0-10.31,0-1.25,0-1.22,0-1.16-1.25q.45-9.78.87-19.56c0-.3,0-.61,0-1.2-1.12,1.59-2.1,3-3.07,4.36-3.94,5.66-7.88,11.33-11.85,17a1.79,1.79,0,0,1-1.19.64c-1.15.09-2.31,0-3.47,0a.94.94,0,0,1-1.12-.81q-2.83-10.14-5.72-20.27Z"/><path class="cls-1" d="M134,113.45,139.39,86h-2.75c.31-.72.55-1.32.82-1.9,1.2-2.61,2.41-5.21,3.61-7.82a7.21,7.21,0,0,0,.4-1c.41-1.44.4-1.45,1.87-1.45,5.81,0,11.62,0,17.44,0a18.89,18.89,0,0,1,7.52,1.26c5,2.14,7,5.76,6,11.1s-4.34,8.41-9.09,10.32c-.95.38-2,.61-3.06,1l11.47,16a7,7,0,0,1-.82.11c-4.66,0-9.31,0-14,0a1.33,1.33,0,0,1-1.29-.85q-3.84-6.7-7.71-13.39a4.62,4.62,0,0,0-.29-.36c-.3,1.47-.59,2.8-.85,4.15q-1,4.82-1.89,9.65c-.09.46-.19.8-.8.8-3.81,0-7.62,0-11.44,0A3.41,3.41,0,0,1,134,113.45ZM151,91.39a21.66,21.66,0,0,0,6.46-.78,4.84,4.84,0,0,0,3.83-4.09c.3-1.58-.18-2.81-1.71-3.28a28.49,28.49,0,0,0-5-1c-1.77-.21-1.78-.11-2.11,1.66C151.95,86.36,151.46,88.83,151,91.39Z"/><path class="cls-1" d="M263.68,113.45,282.86,84.1l-2.7-1.22c1.68-1.53,3.26-2.94,4.79-4.4s3-2.94,4.46-4.38a1.3,1.3,0,0,1,.82-.3c4.06,0,8.12,0,12.19,0,.51,0,.78.12.91.67q3,11.9,6,23.78,1.78,7,3.59,14.06c.09.36.16.72.26,1.18-.35,0-.62.07-.89.08-3.87,0-7.75,0-11.62,0-.76,0-1-.29-1.17-1-.38-1.74-.87-3.45-1.25-5.19-.13-.59-.41-.73-1-.73q-7.5,0-15,0a1.26,1.26,0,0,0-1.19.69q-1.81,2.79-3.71,5.52a1.52,1.52,0,0,1-1,.63c-4.06,0-8.12,0-12.19,0A3.9,3.9,0,0,1,263.68,113.45Zm23.07-15h9.47l-2.38-11.68Z"/><path class="cls-1" d="M105.8,100.48c-.79,4.07-1.59,8-2.31,12-.16.88-.5,1.15-1.4,1.14-3.4-.06-6.81,0-10.22,0H90.63L96,86.2H93c.14-.41.2-.68.31-.92,1.68-3.69,3.37-7.38,5.08-11.06a.91.91,0,0,1,.7-.4c7.31,0,14.62,0,21.93.18a13.44,13.44,0,0,1,7.22,2.35,8.66,8.66,0,0,1,4,8.44c-.42,5.32-2.47,9.78-7.1,12.76a19.61,19.61,0,0,1-10.42,2.9C111.75,100.53,108.81,100.48,105.8,100.48Zm1.73-8.76a49.8,49.8,0,0,0,6,0c3.36-.42,5-2.23,5.26-5.21a3,3,0,0,0-2.41-3.58c-2.32-.69-4.69-.3-7.07-.41Z"/><path class="cls-1" d="M179.36,113.4l5.34-27.26h-2.87c.72-1.59,1.35-3,2-4.4l2.7-5.87a2.71,2.71,0,0,0,.32-.87c.07-1,.55-1.24,1.52-1.22,3.37.07,6.75,0,10.12,0h1.23c-.49,2.5-.94,4.85-1.4,7.21l-4.48,22.88c-.58,3-1.15,5.94-1.77,8.9-.06.29-.46.74-.7.74-3.87,0-7.75,0-11.62,0A1.67,1.67,0,0,1,179.36,113.4Z"/></svg>