<svg id="Layer_1" data-name="Layer 1" xmlns="http://www.w3.org/2000/svg" viewBox="0 0 400 190"><defs><style>.cls-1{fill:#d7d7d7;}</style></defs><title>logo bank</title><path class="cls-1" d="M380,5a15,15,0,0,1,15,15V170a15,15,0,0,1-15,15H20A15,15,0,0,1,5,170V20A15,15,0,0,1,20,5H380m0-5H20A20.06,20.06,0,0,0,0,20V170a20.06,20.06,0,0,0,20,20H380a20.06,20.06,0,0,0,20-20V20A20.06,20.06,0,0,0,380,0Z"/><path class="cls-1" d="M158,130.81l13.22-49.34h-5.38c.09-.2.14-.33.2-.45q5.43-10.41,10.86-20.81a.55.55,0,0,1,.57-.34l24.64-.2a35.47,35.47,0,0,1,12.5,2A19.37,19.37,0,0,1,222.84,67a13.5,13.5,0,0,1,2.66,14.13A21.81,21.81,0,0,1,219.33,90a35.27,35.27,0,0,1-6,4.41l-.5.31c.16.17.29.34.44.49a26.94,26.94,0,0,1,5.65,8.19,15.87,15.87,0,0,1,1.18,8.62,16.65,16.65,0,0,1-3,7.3A27.3,27.3,0,0,1,206.13,128a28.68,28.68,0,0,1-8.27,2.51,27.71,27.71,0,0,1-3.76.27q-17.7,0-35.41,0Zm27.15-18.21h.29c2.8,0,5.59,0,8.39,0a5.27,5.27,0,0,0,3.39-1.12,6.58,6.58,0,0,0,2.91-6,3,3,0,0,0-2.92-2.8c-3.1-.06-6.21,0-9.31,0-.26,0-.34.12-.4.36-.39,1.63-.8,3.26-1.2,4.89Zm6-23.77.5,0h7.59a4.24,4.24,0,0,0,1-.14,5.63,5.63,0,0,0,3.78-6.6,3.46,3.46,0,0,0-3.57-2.76h-6.76a.47.47,0,0,0-.56.44c-.5,2.12-1,4.22-1.54,6.34C191.44,87,191.33,87.89,191.17,88.83Z"/><path class="cls-1" d="M298.53,81.59h-6.18c.09-.18.13-.29.19-.4q5.79-10,11.58-20.07a.68.68,0,0,1,.68-.39h34.43c0,.41.07.78.09,1.16.1,2.59.19,5.18.29,7.77q.2,5.27.41,10.53c.1,2.52.19,5,.28,7.55q.21,5.42.42,10.84c.1,2.52.19,5,.28,7.55q.21,5.4.42,10.8.09,2.33.18,4.65.19,5,.37,10c0,.17,0,.34,0,.54H317.86v-.51c0-3.68,0-7.35,0-11,0-.43-.09-.57-.55-.57q-6.74,0-13.49,0a.59.59,0,0,0-.65.42c-1.56,3.67-3.13,7.34-4.69,11a.71.71,0,0,1-.77.51q-12.52,0-25,0h-.52Zm19.33,4.83-.12,0-7.06,16.52h6.56c.62,0,.62,0,.62-.61q0-7.73,0-15.46Z"/><path class="cls-1" d="M282.6,88c-1.16-.72-2.26-1.48-3.43-2.12a24.09,24.09,0,0,0-8.63-2.76,26.2,26.2,0,0,0-13.42,1.7,19.28,19.28,0,0,0-9.46,7.66,14.18,14.18,0,0,0-2.09,8.93,13.17,13.17,0,0,0,1.76,5.82,12.7,12.7,0,0,0,6.85,5.35,23.31,23.31,0,0,0,8.54,1.26,32,32,0,0,0,10.42-2,27.92,27.92,0,0,0,2.78-1.19c.9-.45,1.76-1,2.67-1.49-.11.26-.22.53-.33.8q-4.8,11.11-9.62,22.21a1.17,1.17,0,0,1-.55.55,21.93,21.93,0,0,1-7.32,1.82c-2.42.18-4.85.29-7.28.27a33.52,33.52,0,0,1-13.39-3,35,35,0,0,1-9.9-6.5,24.19,24.19,0,0,1-6.7-11.69,33.14,33.14,0,0,1-1-10.09,41.48,41.48,0,0,1,4.79-17.9A42.71,42.71,0,0,1,248.41,66.2a54.24,54.24,0,0,1,13.46-3.79,65,65,0,0,1,9.83-.83c1.53,0,3.07.13,4.6.26a.59.59,0,0,0,.69-.35c.25-.46.52-.91.78-1.35,1.44.5,16.19,7.8,16.5,8.19Z"/><path class="cls-1" d="M56.5,95.89a86.44,86.44,0,0,1,4-26c1.11-3.64,2.42-7.2,3.86-10.72a1,1,0,0,1,.58-.6,88.45,88.45,0,0,1,17.91-6,81.46,81.46,0,0,1,20.62-1.78,86.35,86.35,0,0,1,13,1.52,111.24,111.24,0,0,1,20.62,6.2,1.45,1.45,0,0,1,.83.81,86.49,86.49,0,0,1,5.8,16.65,79.4,79.4,0,0,1,1.66,9.85,78.26,78.26,0,0,1,.31,12.41,89.78,89.78,0,0,1-3.37,19.71,111.32,111.32,0,0,1-4.51,12.81,1.05,1.05,0,0,1-.49.49,86.69,86.69,0,0,1-18.12,6.1,81.44,81.44,0,0,1-9.57,1.46,80.41,80.41,0,0,1-10.13.31,89.12,89.12,0,0,1-16.89-2.21,111,111,0,0,1-17.68-5.66.93.93,0,0,1-.45-.42,84.54,84.54,0,0,1-6.53-19.67,74.25,74.25,0,0,1-1.41-12.05C56.48,98,56.5,96.95,56.5,95.89ZM100,52.62c-.89,0-1.79,0-2.68,0a73.6,73.6,0,0,0-11.72,1.26,85.08,85.08,0,0,0-19.23,6.06,1.08,1.08,0,0,0-.61.63,109.85,109.85,0,0,0-5,15.19,87.07,87.07,0,0,0-2.31,14.31,79.26,79.26,0,0,0-.12,9.44,74.77,74.77,0,0,0,1.1,9.84,82.72,82.72,0,0,0,6.26,19.8,1.17,1.17,0,0,0,.7.66c3.57,1.42,7.2,2.68,10.89,3.75A90.05,90.05,0,0,0,99,137.17,79,79,0,0,0,116,136a84.79,84.79,0,0,0,19.81-6.21,1,1,0,0,0,.45-.48,106.12,106.12,0,0,0,4.79-14.24,85.38,85.38,0,0,0,2.74-18.4,76.51,76.51,0,0,0-1.1-16,82.23,82.23,0,0,0-6.37-20.18,1.1,1.1,0,0,0-.54-.51,112.83,112.83,0,0,0-11.73-4A86.84,86.84,0,0,0,100,52.62Z"/><path class="cls-1" d="M101.74,117.81H99.32q0-.25,0-.51c0-4.17,0-8.35,0-12.52A42.17,42.17,0,0,0,98,93.89a20.65,20.65,0,0,0-5.1-8.78c-1.17-1.23-2.34-2.46-3.46-3.74a11.36,11.36,0,0,1-2.88-6.2,14,14,0,0,1,4.74-12.82,13.54,13.54,0,0,1,9.93-3.61,14.44,14.44,0,0,1,13.51,13.17,12.5,12.5,0,0,1-3.36,9.95c-1.37,1.5-2.79,3-4.14,4.49a20.35,20.35,0,0,0-4.56,9.78,58.66,58.66,0,0,0-.84,11.14c0,3.32,0,6.65,0,10C101.77,117.42,101.75,117.6,101.74,117.81Z"/><path class="cls-1" d="M104.48,117.84h-1.24l-.39,0c0-.13,0-.26,0-.39,0-4.1,0-8.2,0-12.3a49.84,49.84,0,0,1,1-9.46,21.59,21.59,0,0,1,5.13-9.85A19.63,19.63,0,0,1,115,81a10.91,10.91,0,0,1,15.75,7.95,12.09,12.09,0,0,1-.13,5.14A8.63,8.63,0,0,1,126,99.64a41.55,41.55,0,0,1-6.87,2.63,41.67,41.67,0,0,0-6.88,2.73,14.89,14.89,0,0,0-6.48,6.29,12.93,12.93,0,0,0-1.19,5.66c0,.25,0,.5,0,.75A.58.58,0,0,1,104.48,117.84Z"/><path class="cls-1" d="M98.26,110.35c0,2.33,0,4.66,0,7,0,.41-.12.55-.52.51s-.89.1-1.09-.1-.13-.71-.14-1.09a12.1,12.1,0,0,0-1.2-5.43,14.44,14.44,0,0,0-5.52-5.69A38.14,38.14,0,0,0,82,102.27c-1.95-.66-3.89-1.35-5.8-2.11a10.59,10.59,0,0,1-3.76-2.53,8.34,8.34,0,0,1-2.22-5.08,11.56,11.56,0,0,1,1.41-7.15,10.64,10.64,0,0,1,8.57-5.6,11,11,0,0,1,7.09,1.82,23.3,23.3,0,0,1,8.93,10.57,23.75,23.75,0,0,1,1.57,6.36A85.38,85.38,0,0,1,98.26,110.35Z"/><path class="cls-1" d="M71.5,98.17c2.32,2.52,5.42,3.44,8.49,4.41a52.18,52.18,0,0,1,7.6,2.8,15.74,15.74,0,0,1,6.14,4.91,10.32,10.32,0,0,1,1.87,5.57c0,.64.06,1.28.09,1.95H93.83c-.06-.43-.09-.87-.19-1.28a4,4,0,0,0-3.44-3.08,16.73,16.73,0,0,0-4.63-.15c-2,.12-4.09.31-6.13.28a12.13,12.13,0,0,1-6.21-1.6,6.74,6.74,0,0,1-3.33-5.2,15.61,15.61,0,0,1,1.46-8.36C71.39,98.35,71.43,98.29,71.5,98.17Z"/><path class="cls-1" d="M129.72,98.2c.33.95.7,1.88,1,2.84a13.52,13.52,0,0,1,.45,6.12,7.08,7.08,0,0,1-5.25,5.72,14,14,0,0,1-4.66.72c-1.91,0-3.82-.2-5.73-.3a14.48,14.48,0,0,0-5.18.31,3.92,3.92,0,0,0-3,3.7c0,.16,0,.32-.06.5h-1.79c0-.62,0-1.25,0-1.87a11.24,11.24,0,0,1,5.31-9,28.85,28.85,0,0,1,7.57-3.51c2.05-.68,4.12-1.32,6.15-2a12.1,12.1,0,0,0,5-3.19Z"/><path class="cls-1" d="M110.22,128.17a2.51,2.51,0,0,0,.41.13,1.32,1.32,0,0,1,1.26,1.2,4.29,4.29,0,0,1,.1.91c0,1-.33,1.47-1.36,1.68s-2,.3-3.13.45c-.06-.49-.13-.93-.17-1.38q-.3-2.85-.6-5.71a2.06,2.06,0,0,1,0-.48c0-.09.11-.23.17-.24,1.12-.08,2.24-.17,3.36-.19a1.08,1.08,0,0,1,1.08.92,5.76,5.76,0,0,1,.18,1.16A1.4,1.4,0,0,1,110.22,128.17Zm.19,2c0-1-.26-1.27-1.28-1.22H109c-.28,0-.39.11-.36.4.07.57.12,1.13.19,1.7a.29.29,0,0,0,.17.2A1.07,1.07,0,0,0,110.41,130.12Zm-1.87-2.3c.27,0,.51-.06.75-.1s.62-.21.66-.6.12-1-.35-1.31a2.56,2.56,0,0,0-1.14-.1s-.13.19-.12.28C108.39,126.58,108.47,127.17,108.54,127.82Z"/><path class="cls-1" d="M87.84,127.84c.88.58,1,.85.73,2-.11.51-.21,1-.29,1.55,0,.29-.17.38-.44.3l-.3-.07c-1-.22-.85,0-.68-1.06.08-.47.21-.94.29-1.42A1,1,0,0,0,85.93,128c-.08,0-.16.19-.18.3-.18.8-.35,1.6-.52,2.39,0,.11-.06.22-.11.38l-1.47-.31.2-.95c.44-2.08.89-4.17,1.32-6.25.06-.31.16-.42.49-.34.75.19,1.51.32,2.26.52s1.36.45,1.49,1.25a2.11,2.11,0,0,1-1.56,2.82Zm-1.79-1c.56.09,1.08.36,1.44-.09a1.59,1.59,0,0,0,.3-1.56c-.2-.53-.75-.5-1.26-.61Z"/><path class="cls-1" d="M82.6,125l-1.39-.43c0-.26.09-.48.11-.71a.72.72,0,0,0-.54-.84.75.75,0,0,0-.95.34,1,1,0,0,0-.13.23c-.39,1.31-.83,2.61-1.16,3.94a1,1,0,0,0,1.21,1.1.42.42,0,0,0,.22-.22,2.45,2.45,0,0,0,.14-.42l.33-1.09-.68-.26.31-1,2.18.66L81.11,130a8.29,8.29,0,0,1-3.16-.73,1.65,1.65,0,0,1-.92-2,29.63,29.63,0,0,1,1.2-4.06c.62-1.59,1.86-1.76,3.5-1C82.89,122.73,83.18,123.76,82.6,125Z"/><path class="cls-1" d="M92.93,124.39c-.19,1.77-.37,3.49-.54,5.2a8,8,0,0,0-.05.83c0,.53.2.76.71.81s.83-.08.91-.63c.15-1,.24-1.94.35-2.91s.19-1.83.28-2.75c0-.24.11-.38.39-.33s.72.08,1.16.12c0,.4-.06.78-.1,1.17-.17,1.58-.33,3.17-.53,4.75a1.79,1.79,0,0,1-1.85,1.69,4.83,4.83,0,0,1-1.17-.09,1.88,1.88,0,0,1-1.66-2.2c.17-1.88.39-3.75.6-5.62a1.07,1.07,0,0,1,.06-.17Z"/><path class="cls-1" d="M126.44,128.94c-.43.13-.8.23-1.16.36s-.31,0-.41-.19c-.21-.42-.43-.83-.66-1.26-.5.15-1,.28-1.44.45a.45.45,0,0,0-.2.36,6.14,6.14,0,0,0,.11,1.09c.05.27,0,.37-.28.43s-.69.21-1.09.33c-.06-.77-.13-1.51-.18-2.24-.13-1.76-.25-3.53-.39-5.29a.45.45,0,0,1,.42-.57c.43-.1.84-.25,1.31-.39Zm-2.73-2.1-1.57-3-.12,0,.39,3.38.4-.1Z"/><path class="cls-1" d="M98,124.75c1.21.08,2.29.12,3.36.25a1.32,1.32,0,0,1,1.21,1.21,7.62,7.62,0,0,1,0,2,1.33,1.33,0,0,1-1.35,1.22c-.55.07-1.1.09-1.72.14v3H98Zm1.55,2.46h0c0,.29,0,.58,0,.87a.4.4,0,0,0,.12.29,1.33,1.33,0,0,0,1.29-.3,2,2,0,0,0,.07-1.65c-.19-.47-.66-.4-1.05-.45s-.44.05-.42.37S99.55,126.91,99.55,127.21Z"/><path class="cls-1" d="M117.2,128.66l1.48-.3a10.64,10.64,0,0,1,.16,1.2,1.57,1.57,0,0,1-1,1.64,4.87,4.87,0,0,1-1.09.32c-1.45.21-2.13-.19-2.52-1.6-.32-1.15-.54-2.33-.77-3.51-.37-1.88.53-2.74,2.56-2.84a1.87,1.87,0,0,1,1.94,2.12l-1.39.3c-.08-.25-.14-.5-.24-.74s-.34-.59-.75-.53a.73.73,0,0,0-.66.8,12.32,12.32,0,0,0,.24,1.6c.15.74.31,1.49.49,2.22a2.84,2.84,0,0,0,.24.61.71.71,0,0,0,.82.44.69.69,0,0,0,.58-.73A8.18,8.18,0,0,0,117.2,128.66Z"/></svg>