<svg id="Layer_1" data-name="Layer 1" xmlns="http://www.w3.org/2000/svg" viewBox="0 0 400 190"><defs><style>.cls-1{fill:#d7d7d7;}.cls-2{fill:#a0a0a0;}.cls-3{fill:#c4c4c4;}.cls-4{fill:#0285cd;}.cls-5{fill:#00a7e8;}.cls-6{fill:#7dbd35;}</style></defs><title>logo bank</title><path class="cls-1" d="M380,5a15,15,0,0,1,15,15V170a15,15,0,0,1-15,15H20A15,15,0,0,1,5,170V20A15,15,0,0,1,20,5H380m0-5H20A20.06,20.06,0,0,0,0,20V170a20.06,20.06,0,0,0,20,20H380a20.06,20.06,0,0,0,20-20V20A20.06,20.06,0,0,0,380,0Z"/><path class="cls-1" d="M74.14,116.92a2,2,0,0,0,1,.1l12.54,0a14.56,14.56,0,0,1,2.13.14c5.26.8,7.34,4.37,6.93,9.18-.44,5.23-3.78,8.19-9.06,8.3-1.46,0-2.92,0-4.38,0-.6,0-.77.19-.76.78,0,2.79,0,5.57,0,8.36a2.64,2.64,0,0,0,2.38,2.9c.35.07.71.1,1.06.14s.28.28.29.51-.12.35-.34.36H85.8l-11.67,0v-1c2.88.11,3.53-.51,3.52-3.36q0-10.94,0-21.88c0-2.6-.86-3.42-3.48-3.36ZM84.36,118c-.39,0-.78,0-1.17,0s-.73.12-.72.7q.06,7,0,14c0,.47.09.7.63.71a15.92,15.92,0,0,0,4.63-.39,4.85,4.85,0,0,0,3.72-3.81,16.08,16.08,0,0,0,.24-4.93,7,7,0,0,0-2.14-4.65C88.1,118.23,86.25,118.11,84.36,118Z"/><path class="cls-1" d="M144.15,129.12c4.18-5.71,11-5.7,13.43-.31.3-.12.37-.43.53-.66a8,8,0,0,1,9.08-2.9,5.79,5.79,0,0,1,4,5.29c.23,4.18.19,8.36.15,12.54,0,1.91.64,2.7,2.52,3,.26,0,.62-.1.6.4s-.35.38-.63.38h-9.73c-.23,0-.55.12-.6-.29s.24-.43.55-.48c1.86-.29,2.3-.83,2.3-2.7q0-6.08,0-12.16A6.44,6.44,0,0,0,166,129a3.46,3.46,0,0,0-5.45-1.75,5.85,5.85,0,0,0-2.52,4.62c-.24,4.08-.09,8.17,0,12.25,0,1.26.64,1.73,2,1.84.34,0,.81-.18.81.5s-.48.48-.81.49q-4.67,0-9.34,0c-.27,0-.68.2-.73-.35s.41-.43.72-.46a2.15,2.15,0,0,0,2-1.77,7.3,7.3,0,0,0,.17-1.93q0-5.35,0-10.7a7.88,7.88,0,0,0-.28-2.21,3.52,3.52,0,0,0-6-1.71,7.43,7.43,0,0,0-2.41,5.65c0,3.34,0,6.68,0,10,0,1.74.43,2.23,2.15,2.51a4.61,4.61,0,0,0,.67.1c.34,0,.43.16.43.48s-.23.39-.51.39h-4.28c-1.88,0-3.76,0-5.64,0-.31,0-.76.19-.76-.43s.43-.35.7-.37a2.52,2.52,0,0,0,2.63-2.82q0-6.91,0-13.81c0-1.93-.61-2.6-2.53-2.83-.32,0-.86.21-.85-.47s.53-.45.86-.48c2.1-.19,4.2-.33,6.3-.53.56-.06.75.06.72.64C144.12,126.84,144.15,127.88,144.15,129.12Z"/><path class="cls-1" d="M235,59a25.66,25.66,0,0,1-1.88,3q-14.51,22.53-29,45.06c-.43.67-.81,1.46-1.83,1.3a22.36,22.36,0,0,1,.85-2.82.19.19,0,0,0,.08-.06l.06-.07a1.73,1.73,0,0,0,.3-.37c1.18-2.77,2.34-5.54,3.52-8.31q5.15-12.05,10.31-24.1c1.78-4.16,3.54-8.34,5.3-12.51Z"/><path class="cls-1" d="M250,129.5a30.89,30.89,0,0,1,3.8,1,7.5,7.5,0,0,1,5.18,7.14A7.57,7.57,0,0,1,254,145.3a12.91,12.91,0,0,1-4.93,1c-4.44,0-8.88,0-13.32,0-.25,0-.66.19-.7-.26s.41-.3.65-.35c1.63-.35,2-.69,2.18-2.37a14.62,14.62,0,0,0,.07-1.75q0-11.08,0-22.17a8.7,8.7,0,0,0-.06-1.16c-.21-1.51-.71-1.94-2.23-2h-.78c-.25,0-.32-.17-.32-.39s0-.39.29-.41h.39c4.57,0,9.14,0,13.71.08a13.08,13.08,0,0,1,4.38.77,6.16,6.16,0,0,1,4.13,6,5.82,5.82,0,0,1-3.94,6.06C252.43,128.76,251.27,129.08,250,129.5Zm-8.56,8.22h0q0,3.35,0,6.71c0,.37-.12.78.53.78a58.77,58.77,0,0,0,6.9-.12,6.46,6.46,0,0,0,6-6.37c0-.49,0-1,0-1.46,0-3.74-1.71-5.93-5.38-6.75-2.41-.54-4.84-.22-7.27-.34-.77,0-.9.25-.89.94C241.43,133.32,241.41,135.52,241.41,137.73Zm0-15.12h-.07c0,1.88,0,3.76,0,5.64,0,.44,0,.73.6.72a59.6,59.6,0,0,0,6.5-.13,5.9,5.9,0,0,0,5.57-6c.11-3.37-1.77-5.66-5.2-6.31-2.28-.43-4.59-.14-6.88-.23-.57,0-.51.34-.51.69Q241.4,119.8,241.4,122.61Z"/><path class="cls-1" d="M200.3,38.53l12-4.39c.18-.06.39-.07.47-.29.29.48,0,.91-.15,1.33Q207.31,53.54,202,71.89a5.72,5.72,0,0,1-.74,2.08c-1-.18-.5-1-.74-1.57.28-.26.17-.61.17-.92,0-2-.11-4-.13-6C200.43,56.5,200.55,47.51,200.3,38.53Z"/><path class="cls-2" d="M203.1,105.59a22.36,22.36,0,0,0-.85,2.82c-1-.3-1.2-.72-.94-1.92l1.8-8.25,10.43-47.92c.08-.38.17-.76.26-1.13.44.17.58.59.77,1,1.24,2.38,2.45,4.79,3.71,7.16a2.05,2.05,0,0,1,.14,1.75Q212,78.66,205.57,98.27q-1.18,3.6-2.33,7.2l-.06.07Z"/><path class="cls-1" d="M186.1,50.79q2.63,8.48,5.27,17,3.34,10.8,6.67,21.61c.06.18.08.38.12.56-.29.26-.11.34.14.39l.27,1c-.19.15-.05.16.08.17a2.42,2.42,0,0,1,.29,1c-.27.25-.1.35.15.42l0,.44a1.12,1.12,0,0,1-.87-.63,11.19,11.19,0,0,0-.86-1.19.45.45,0,0,0-.21-.4h0l-.2-.2h0a.48.48,0,0,0-.2-.43s0-.09,0-.14c-.24-.46-.46-.93-.71-1.38l-7.56-13.41c-1.93-3.43-3.9-6.84-5.78-10.3-1.1-2-2.37-3.92-3.27-6,.94-1.23,1.86-2.47,2.84-3.67A60.29,60.29,0,0,1,186.1,50.79Z"/><path class="cls-3" d="M203.24,105.47q1.17-3.6,2.33-7.2Q212,78.66,218.4,59.05a2.05,2.05,0,0,0-.14-1.75c-1.26-2.37-2.47-4.78-3.71-7.16-.19-.36-.33-.78-.77-1a2.19,2.19,0,0,1,3-1.12L234,55.74c.31.14.69.18.9.52-3.45.07-6.9.15-10.35.21-.74,0-1.48.07-2.21.14s-.67.3-.51.81a14.8,14.8,0,0,1,.86,2.76c-1.77,4.17-3.52,8.34-5.3,12.51q-5.15,12.05-10.31,24.1c-1.18,2.77-2.34,5.54-3.52,8.31A1.73,1.73,0,0,1,203.24,105.47Z"/><path class="cls-1" d="M189,143.7a8.07,8.07,0,0,1-7.27,3.4c-4.69-.08-6.51-3.06-5.86-7.2.44-2.79,3-4.84,6.34-5.28,2-.26,4-.47,6-.64.65-.06.86-.28.86-.94a32.13,32.13,0,0,0,0-4.37,3.54,3.54,0,0,0-5.56-2.62,2.76,2.76,0,0,0-1.31,2.06c-.08.48-.08,1-.13,1.45a2.39,2.39,0,0,1-1.8,2.27,2.83,2.83,0,0,1-2.92-.88,2.36,2.36,0,0,1,.11-2.81,7.08,7.08,0,0,1,4.71-3,18.54,18.54,0,0,1,7.05-.28,5,5,0,0,1,4.35,4.33,12.4,12.4,0,0,1,.12,1.84c0,3.76,0,7.52,0,11.28,0,2.32.44,2.93,2.67,3.6.24.07.43.12.43.42s-.15.34-.37.33a34.1,34.1,0,0,1-4.85-.15C190,146.26,189.39,145.21,189,143.7Zm.12-6c0-.68,0-1.36,0-2,0-.51-.14-.75-.73-.72a20.83,20.83,0,0,0-3,.31c-3.41.72-5.06,3-4.71,6.45,0,.42.08.84.16,1.25a3.06,3.06,0,0,0,3,2.59,4.38,4.38,0,0,0,4.22-2.42A9,9,0,0,0,189.07,137.7Z"/><path class="cls-1" d="M224.89,143.81c-1.81,2.52-4.32,3.34-7.18,3.3-4.56-.07-6.5-2.91-5.9-7.09.41-2.84,3-4.94,6.34-5.39,2-.27,4.05-.47,6.09-.66.54-.05.79-.2.78-.81a31.65,31.65,0,0,0,0-4.56,3.56,3.56,0,0,0-5.69-2.45,2.84,2.84,0,0,0-1.19,2.14c-.06.51-.07,1-.14,1.55a2.37,2.37,0,0,1-2.32,2.08,2.6,2.6,0,0,1-2.51-1.18,2.37,2.37,0,0,1,.24-2.57,6.67,6.67,0,0,1,4-2.83,17.49,17.49,0,0,1,7.32-.52c3.16.43,4.82,2.31,4.86,5.51,0,3.63,0,7.26,0,10.89,0,.55,0,1.1,0,1.65a2.78,2.78,0,0,0,2.44,3c.31.07.72,0,.63.52s-.47.24-.73.25c-.87,0-1.75,0-2.63,0C226.63,146.67,226.13,146.36,224.89,143.81Zm.19-6.1c0-.68,0-1.36,0-2,0-.51-.12-.76-.72-.72a18.18,18.18,0,0,0-3.37.41c-3.08.79-4.5,2.68-4.37,5.86a13.34,13.34,0,0,0,.16,1.64,3.07,3.07,0,0,0,3.07,2.7,4.35,4.35,0,0,0,4.08-2.33A9,9,0,0,0,225.08,137.71Z"/><path class="cls-2" d="M197.39,91.48a11.19,11.19,0,0,1,.86,1.19,1.12,1.12,0,0,0,.87.63c.15.52-.14.8-.55,1a.91.91,0,0,1-1.13-.31c-.61-.67-1.2-1.36-1.8-2q-14.09-16-28.18-32c-.63-.72-.41-1.5-.38-2.29.17,0,.32-.07.22-.3h0c2.57.17,5.14.35,7.71.49,1.15.06,1.3.17,1,1.31a2.72,2.72,0,0,0,.45,2.37q5.78,8.31,11.5,16.65l8,11.56c.21.3.39.6.8.63,0,0,0,.09,0,.14a.4.4,0,0,0,.2.43h0l.2.2h0A.39.39,0,0,0,197.39,91.48Z"/><path class="cls-1" d="M109.43,136c-2.11,0-4.22,0-6.32,0-.3,0-.78-.19-.73.44.18,2.29.22,4.61,1.35,6.71,2,3.62,5.73,4.45,9,2a12.4,12.4,0,0,0,2.63-2.84c.15-.21.22-.58.63-.28s.48.44.2.85c-2.74,4.05-5.3,5.78-11.06,5-3.69-.51-6.79-3.75-7.64-7.86a16.28,16.28,0,0,1-.18-5.9,10.22,10.22,0,0,1,13.08-8.31c3,.85,4.63,2.92,5.61,5.71a12,12,0,0,1,.64,3.62c0,.67-.1,1-.89.94C113.65,136,111.54,136,109.43,136Zm-2.6-1.39v0c1.33,0,2.66,0,4,0,.4,0,.67,0,.7-.54a9.68,9.68,0,0,0-1.66-6.35,3.17,3.17,0,0,0-5-.57,5,5,0,0,0-1.35,1.76,15.52,15.52,0,0,0-1.14,5.09c0,.52.18.59.61.58C104.24,134.6,105.53,134.61,106.83,134.61Z"/><path class="cls-1" d="M311.95,136.54l2.77-3,4.69-5.07a4.59,4.59,0,0,0,.91-1.25,1.7,1.7,0,0,0-1.35-2.53,2.64,2.64,0,0,1-1.19-.39H327c-.1.13-.15.25-.2.25a6.29,6.29,0,0,0-4.07,2.25c-1.53,1.59-3.08,3.15-4.62,4.73-.25.25-.51.45-.23.89,2,3.19,3.88,6.51,6.1,9.59.93,1.29,1.88,2.6,3.66,2.81.17,0,.32.12.3.31s-.21.2-.37.2c-1.62,0-3.24,0-4.86,0-.53,0-.61-.41-.8-.72q-2.87-4.68-5.71-9.37c-.18-.3-.38-.6-.63-1-1.11,1.2-2.18,2.36-3.26,3.51a.94.94,0,0,0-.2.72c0,1.3,0,2.6,0,3.89.06,1.86.62,2.47,2.44,2.78.2,0,.48-.07.6.34h-9.22c.1-.44.47-.29.72-.36a2.77,2.77,0,0,0,2.41-3q0-12.16,0-24.32c0-1.47-.53-2.05-2-2.25-.32,0-.64-.07-1-.1s-.39-.05-.38-.32.15-.26.33-.28l5.52-.45c.49,0,.39.31.39.58,0,.91,0,1.82,0,2.72C311.95,123.86,311.95,130.06,311.95,136.54Z"/><path class="cls-2" d="M200.51,72.4c.24.53-.23,1.39.74,1.57-.72.81-1.05.21-1.28-.4-.79-2.12-1.55-4.25-2.32-6.38L186,35.09c-.08-.21-.12-.43-.17-.65,1.55.25,2.85,1.15,4.3,1.68,1.84.68,3.54,1.69,5.44,2.25.22,1.69.42,3.39.66,5.08.74,5.06,1.52,10.12,2.26,15.18C199.2,63.22,199.85,67.81,200.51,72.4Z"/><path class="cls-1" d="M291.38,145.7h-9.8c.52-.48,1-.39,1.49-.53,1.36-.45,1.94-1,2-2.44,0-5.12,0-10.24,0-15.36a2.05,2.05,0,0,0-1.59-2.08c-.4-.13-.81-.22-1.22-.33-.13,0-.23-.11-.23-.26s.15-.19.27-.21l5.32-.55c.49,0,.39.32.39.59,0,1.26,0,2.52,0,4,.56-.77,1-1.39,1.45-2a7.77,7.77,0,0,1,7.43-2.91c3.41.42,5.28,2.49,5.35,5.93.08,3.82,0,7.65,0,11.47,0,.42,0,.84,0,1.26a2.55,2.55,0,0,0,2.48,2.81c.25,0,.51.08.76.13,0,0,.06.1.15.27h-9.17c.23-.38.55-.33.82-.38,1.49-.27,1.9-.73,2-2.27,0-.65,0-1.3,0-1.94,0-3.5,0-7,0-10.5a9.84,9.84,0,0,0-.17-1.74c-.7-3.76-3.85-5.24-7.16-3.3a7.81,7.81,0,0,0-3.87,6.79c-.16,3.53-.07,7.07.07,10.6a2.34,2.34,0,0,0,1.83,2.34C290.38,145.28,290.86,145.22,291.38,145.7Z"/><path class="cls-1" d="M125.32,129.49a11.21,11.21,0,0,1,3.27-3.4,4.7,4.7,0,0,1,5.06-.27,2.6,2.6,0,0,1-2.08,4.73,1.86,1.86,0,0,1-1.4-1.56c-.27-1.28-1.1-1.6-2.18-.84a6.53,6.53,0,0,0-2.26,3.76,3.79,3.79,0,0,0-.17,1c-.11,3.83-.15,7.65.12,11.47a2,2,0,0,0,1.91,2,4.27,4.27,0,0,1,.48.06c.32.09.86-.19.85.49s-.61.44-.94.44c-2.4,0-4.8,0-7.2,0h-2.72c-.28,0-.59.09-.6-.39s.22-.43.54-.46c2.11-.25,2.68-.89,2.69-3q0-7,0-13.91a2.44,2.44,0,0,0-2.48-2.75c-.29,0-.73.13-.7-.4s.44-.3.69-.32c2.13-.21,4.26-.38,6.39-.62.62-.07.78.1.75.71C125.28,127.17,125.32,128.21,125.32,129.49Z"/><path class="cls-1" d="M281.37,145.68a17.92,17.92,0,0,1-4,0,2.27,2.27,0,0,1-2-2c-.08-.41-.15-.81-.25-1.33a11.11,11.11,0,0,1-6.77,3.65,7.15,7.15,0,0,1-3.65-.24,5.82,5.82,0,0,1-1.74-9.56c2.16-1.91,4.85-2.51,7.59-2.95,1.28-.2,2.58-.28,3.87-.37.45,0,.61-.16.6-.62,0-1.49,0-3,0-4.47a3.23,3.23,0,0,0-2.94-3.32,5.93,5.93,0,0,0-3.35.2,3.79,3.79,0,0,0-2.71,3.64c-.06,1.6-.89,2.21-2.42,1.93a1.21,1.21,0,0,1-1.1-1.26,3,3,0,0,1,.92-2.27c2.18-2.38,5-3.1,8.09-3.09a9.94,9.94,0,0,1,3.61.72,4.26,4.26,0,0,1,3.07,4.54q0,6.27,0,12.55C278.13,144.55,278.4,144.88,281.37,145.68Zm-6.28-9h.05c0-.81,0-1.62,0-2.43,0-.5-.17-.61-.62-.57a23.14,23.14,0,0,0-4.61.64c-3.69,1.05-5.6,3.64-5.28,7.09a4,4,0,0,0,4.57,3.67,7,7,0,0,0,5.85-5.59A18.92,18.92,0,0,0,275.08,136.67Z"/><path class="cls-1" d="M199.19,134.8c0-2.5,0-5,0-7.49,0-.77-.23-1-.93-.87a7.43,7.43,0,0,1-1.07,0c-.25,0-.56.07-.53-.35s-.17-.7.33-.78c2.85-.44,3.81-2.6,4.56-5,.08-.25.14-.5.21-.75a1.3,1.3,0,0,1,1.81-1c.42.14.27.47.27.73,0,1.62,0,3.24,0,4.86,0,.57.11.8.74.77,1.2-.05,2.4,0,3.6,0,.65,0,.63.32.64.78s-.12.69-.65.67c-1.2,0-2.4,0-3.6,0-.55,0-.8.08-.8.73,0,4.67,0,9.33,0,14a8.45,8.45,0,0,0,.14,1.55c.48,2.52,2.6,3.39,4.74,2,.28-.18.54-.88,1-.14s0,.92-.38,1.16a8.54,8.54,0,0,1-7.63.82,3.73,3.73,0,0,1-2.5-3.63c-.06-2.69,0-5.38,0-8.07Z"/><path class="cls-3" d="M196.8,90.33c-.41,0-.6-.33-.8-.63l-8-11.56q-5.75-8.33-11.5-16.65a2.72,2.72,0,0,1-.45-2.37c.28-1.14.13-1.25-1-1.31-2.57-.14-5.14-.32-7.71-.49,1.49-1,3.12-1.69,4.69-2.52,3.34-1.77,6.7-3.51,10.06-5.25.27-.14.52-.4.88-.31a16.84,16.84,0,0,1-2.15,2.84c-1.35,1.73-2.75,3.42-4.11,5.14-.21.26-.68.65,0,.9a17.52,17.52,0,0,0,2.78,1.09c.9,2.11,2.18,4,3.27,6,1.89,3.46,3.85,6.87,5.78,10.3l7.56,13.41C196.34,89.4,196.56,89.87,196.8,90.33Z"/><path class="cls-1" d="M195.6,38.37c-1.89-.56-3.6-1.57-5.44-2.25-1.44-.53-2.74-1.43-4.3-1.68-.15-.9.71-1.26,1-1.91H210.6l0,.14-3.15,1-9,2.85a2.06,2.06,0,0,0-.41.24C197.12,37,196.54,38,195.6,38.37Z"/><path class="cls-4" d="M349.44,129.4c-.25-.07-.41-.17-.15-.42A.44.44,0,0,1,349.44,129.4Z"/><path class="cls-4" d="M348.66,126.84c-.26-.05-.44-.14-.14-.39Z"/><path class="cls-5" d="M317.65,93.85c.09.23-.05.27-.22.3C317.39,94,317.5,93.89,317.65,93.85Z"/><path class="cls-4" d="M349,128c-.13,0-.27,0-.08-.17A.17.17,0,0,1,349,128Z"/><path class="cls-5" d="M183.17,49l-.21.22C182.93,49.08,183.06,49.07,183.17,49Z"/><path class="cls-6" d="M353.45,142.12l.08-.06A.19.19,0,0,1,353.45,142.12Z"/><path class="cls-5" d="M347.34,127.43a.4.4,0,0,1-.2-.43A.47.47,0,0,1,347.34,127.43Z"/><path class="cls-5" d="M347.75,128a.39.39,0,0,1-.21-.4A.45.45,0,0,1,347.75,128Z"/><path class="cls-5" d="M347.54,127.62l-.2-.2Z"/></svg>