<svg id="Layer_1" data-name="Layer 1" xmlns="http://www.w3.org/2000/svg" viewBox="0 0 400 190"><defs><style>.cls-1{fill:#d7d7d7;}</style></defs><title>logo bank</title><path class="cls-1" d="M226.29,25.9H182c-5.8,0-11.6-.06-17.4,0-7.58.1-14.26,6.35-14.76,13.69,0,.84-.12,1.68-.12,2.52q0,29.76,0,59.52c0,.91.08,1.83.12,2.74a13.79,13.79,0,0,0,.19,1.41c1.36,5.65,4.67,9.55,10.24,11.42a10.34,10.34,0,0,0,4.6.84q31,0,62,0a12.81,12.81,0,0,0,5.84-1.31,15.2,15.2,0,0,0,9.24-14.16q0-30.56,0-61.13A15.27,15.27,0,0,0,226.29,25.9Zm.62,9.36v.09H221v-.09Zm-8.25,25.56a28.13,28.13,0,0,0,4.86-9.07,17.6,17.6,0,0,0-2.07-15.08l-.53-.84s0-.07,0-.21c2,0,4.07-.15,6.06,0a6,6,0,0,1,5.26,5.74c.06,1.65,0,3.3,0,5q0,23.73,0,47.47V95l-4.11-3.72c-6.79-6.17-13.56-12.36-20.38-18.5-.73-.66-.44-.9.11-1.35A67.52,67.52,0,0,0,218.67,60.83ZM197.89,41.36a15.53,15.53,0,0,0-2.61-5.29c-.33-.81-.31-.86.61-.86,2.75,0,5.5,0,8.25,0h1a.43.43,0,0,1,.46.38,27.21,27.21,0,0,1,6.2,6,8.76,8.76,0,0,1,.26,10.12c-2.28,3.85-5.49,6.86-8.81,9.76-3.68,3.21-7.57,6.15-11.43,9.14-1.18.92-1.18.91-.12,1.88l36.86,33.55c1.38,1.26,1.36,1.34-.39,2l-.82.29,0,.21,0-.21-.31.1-.2.08h0l-.19.06c-.29-.35-.69-.16-1-.17q-10.18,0-20.36,0c-3.12,0-6.23,0-9.35,0h-.47c-.61-.28-.08-.56.05-.74a15.93,15.93,0,0,0,2.85-10.41,24.32,24.32,0,0,0-4.14-11.47c-3.22-5-7.43-9.16-11.86-13.08l-.69-.63c1.73-1.61,3.47-3.18,5.15-4.81a47.44,47.44,0,0,0,8.84-10.91C198.25,51.67,199.45,46.71,197.89,41.36Zm-38.51,60.4c0-19.61,0-39.22,0-58.83,0-3.67,1.7-7,6.24-7.45l-.73-.11V35.2H179.3a.92.92,0,0,1,.27.09l-.08.18a23.5,23.5,0,0,1,6.67,6.16c2.39,3.36,2,6.72,0,10.09a45.42,45.42,0,0,1-8,9.2C174.2,64.61,170,68,165.86,71.45c-.72.59-.76.87,0,1.49a145.34,145.34,0,0,1,14.64,12.68,31.1,31.1,0,0,1,6.08,8.31,7.91,7.91,0,0,1-1.26,9.1,23.5,23.5,0,0,1-7,5.21,2.07,2.07,0,0,1-1.07.15c-3.75,0-7.49,0-11.24,0C162,108.37,159.38,105.79,159.38,101.75Z"/><path class="cls-1" d="M185.1,124.39c-3.16,0-6.31,0-9.47,0-.89,0-1.17.19-1.16,1.13,0,6.46,0,12.92,0,19.38v1l-.22.08-.83-1.22q-6.68-9.83-13.35-19.66a1.49,1.49,0,0,0-1.42-.76q-4.85.05-9.69,0c-.65,0-.89.13-.89.84q0,19,0,38c0,.7.22.86.88.85,3.19,0,6.39,0,9.58,0,.88,0,1.09-.24,1.08-1.1,0-6.46,0-12.92,0-19.38,0-.33-.15-.7.17-1.06.17.22.31.38.43.56Q167.09,153.2,174,163.3a1.4,1.4,0,0,0,1.3.79q5-.06,9.91,0c.69,0,.85-.22.85-.88q0-18.94,0-37.89C186,124.61,185.83,124.38,185.1,124.39Z"/><path class="cls-1" d="M84.61,143.17l-.25-.08-.12-.17.16-.15h0a5.62,5.62,0,0,0,2.47-1.27l.24-.13.06,0a1.86,1.86,0,0,0,.79-.72.68.68,0,0,0,.42-.48l.3-.33,0,0,.16-.22-.06,0,.06,0a5.64,5.64,0,0,0,1.24-2.72h0a8.6,8.6,0,0,0-.85-7.17,9,9,0,0,0-4.55-4.12,15.88,15.88,0,0,0-6.57-1.1c-7.08,0-14.17,0-21.25,0-1,0-1.2.25-1.2,1.21q.05,18.66,0,37.33c0,.89.18,1.18,1.13,1.17,6.46,0,12.92,0,19.38,0a36.94,36.94,0,0,0,8.61-1c4.57-1.13,7.58-5.42,7.5-10.52C92.25,147.64,89.45,144.26,84.61,143.17Zm3.5-3-.08,0ZM68.82,132.4c1.94.06,3.9,0,5.83.08,2.83.19,4.09,1.68,3.82,4.27a3.19,3.19,0,0,1-3,3,49.65,49.65,0,0,1-6.92.18c-.49,0-.51-.29-.5-.65,0-1,0-2.05,0-3.08h0c0-1,0-2,0-3C68,132.68,68.13,132.38,68.82,132.4ZM77,155.27a4.9,4.9,0,0,1-1.08.19c-1.28,0-2.56,0-3.84,0v.07c-1.1,0-2.2,0-3.3,0-.56,0-.78-.14-.77-.74,0-2.2,0-4.39,0-6.59,0-.37-.06-.77.51-.75,2.81.1,5.64-.29,8.43.32a3.53,3.53,0,0,1,3.09,3.58A3.8,3.8,0,0,1,77,155.27Z"/><path class="cls-1" d="M275,143.31c-.29-.09-.67-.06-.88-.37,3.67-2.25,4.13-2.6,5-4.22a9.25,9.25,0,0,0,.89-6.51,9.69,9.69,0,0,0-8.58-7.52,9.08,9.08,0,0,0-2.94-.29c-7.38,0-14.75,0-22.13,0-.83,0-.93.3-.93,1q0,18.83,0,37.66c0,.93.31,1.07,1.12,1.06,6.5,0,13,0,19.49,0,.66,0,1.31-.1,2-.16a41.61,41.61,0,0,0,5.45-.65,10.21,10.21,0,0,0,8.56-9.42C282.5,148.62,280,144.94,275,143.31ZM258.26,140c-.5,0-.47-.34-.47-.68q0-1.54,0-3.08c0-1,0-2.05,0-3.08,0-.41,0-.72.57-.7a52.08,52.08,0,0,1,6.81.19,3.24,3.24,0,0,1,3.05,3.42c0,2.08-.81,3.3-2.83,3.71C263,140.2,260.64,139.89,258.26,140Zm9.44,15a6.38,6.38,0,0,1-2.67.59c-2.17,0-4.33,0-6.5,0-.37,0-.76,0-.74-.53.07-2.53-.15-5.06.12-7.58h0l7.05,0c.72.14,1.44.24,2.15.42a3.44,3.44,0,0,1,2.66,3.14A3.73,3.73,0,0,1,267.7,154.92Z"/><path class="cls-1" d="M232.88,160.44c-4.09-6.7-8.17-13.41-12.3-20.08a1.22,1.22,0,0,1,.19-1.84c4.27-4.35,8.48-8.74,12.71-13.13.25-.26.66-.46.66-1h-15a3,3,0,0,1-.44,0c-.59-.09-.84.38-1.14.73q-3.38,3.92-6.73,7.86l-5.46,6.38c0-.69,0-1.07,0-1.46q0-6.28,0-12.56c0-.45.16-1-.65-1-3.81.05-7.63.06-11.44.08-.36.24-.18.6-.18.9q0,18.85,0,37.7c0,.29-.19.67.19.89l.44,0,11.22.06c.12,0,.24-.12.35-.19q0-4.34.07-8.68c0-.39-.08-.79.25-1.14,2-2.08,4-4.17,6-6.31L218,159.93l.93,1.85,0,.06a6,6,0,0,1,.36.8c.35,1.22,1.14,1.51,2.37,1.48,4.17-.09,8.34,0,12.51,0,.26,0,.59.16.83-.26l-1.6-2.42C233.22,161.08,233.07,160.75,232.88,160.44Z"/><path class="cls-1" d="M314.39,146.57c.4-.14.56-.21.74-.25,6.2-1.68,9.34-6.32,8.59-12.68-.46-3.86-3.07-7.22-6.32-8.1a18,18,0,0,0-7-1.09c-7.12-.06-14.24,0-21.36-.07-.75,0-1,.17-1,1q0,18.88,0,37.77c0,.88.31,1,1.08,1,3.38,0,6.75,0,10.13,0,.9,0,1.18-.19,1.17-1.13-.05-4.26,0-8.52,0-12.77,0-2.48.4-2.75,2.86-1.92l.62.21a7.65,7.65,0,0,1,1.75,1.6c2.36,4.34,4.74,8.68,7.08,13a1.56,1.56,0,0,0,1.61,1c3.92,0,7.85,0,11.78,0,.26,0,.58.15.86-.22-1.55-3-3.11-6-4.66-9C320.5,151.33,318.69,147.9,314.39,146.57Zm-6.16-6.51c-2.39.57-4.82.35-7.23.41-.58,0-.65-.29-.64-.75,0-1.1,0-2.2,0-3.3s0-2.2,0-3.3c0-.38,0-.75.53-.73a56.32,56.32,0,0,1,7.25.19c2.24.36,3.35,1.58,3.4,3.63S310.44,139.54,308.23,140.07Z"/><path class="cls-1" d="M124.54,125.13a1,1,0,0,0-1.13-.74c-3.86,0-7.71,0-11.57,0-.78,0-1,.29-1.3,1q-6,16-12,32c-.82,2.19-1.62,4.38-2.48,6.68,4.07,0,8,0,12,0,.5,0,.59-.29.7-.67.48-1.69,1-3.37,1.47-5.08a1,1,0,0,1,1.14-.85q6.11,0,12.23,0a1,1,0,0,1,1.12.87c.43,1.59.95,3.16,1.37,4.76a1.1,1.1,0,0,0,1.28,1c3.53-.05,7.05,0,10.58,0,1.24,0,1.25,0,.83-1.13Q131.63,144,124.54,125.13ZM121,149c-2.35,0-4.7,0-7,0-.76,0-.87-.21-.66-.88,1-3.15,1.94-6.31,2.9-9.47l1.1-3.56.23,0,2.68,8.68c.45,1.47.89,2.95,1.37,4.41C121.79,148.7,121.78,149,121,149Z"/><path class="cls-1" d="M343.26,124.37c-3.38,0-6.75.05-10.13,0-1,0-1.37.24-1.06,1.23v.66q0,.51,0,1v.3c0,.4,0,.8,0,1.21q0,14.57,0,29.13c0,1.1,0,2.2,0,3.29a3.11,3.11,0,0,0,0,1.41v.83c-.24.8.36.63.76.63,3.52,0,7,0,10.57,0,.76,0,.89-.26.89-.94q0-18.88,0-37.77C344.3,124.56,344.09,124.36,343.26,124.37Z"/><path class="cls-1" d="M380,5a15,15,0,0,1,15,15V170a15,15,0,0,1-15,15H20A15,15,0,0,1,5,170V20A15,15,0,0,1,20,5H380m0-5H20A20.06,20.06,0,0,0,0,20V170a20.06,20.06,0,0,0,20,20H380a20.06,20.06,0,0,0,20-20V20A20.06,20.06,0,0,0,380,0Z"/></svg>