<svg id="Layer_1" data-name="Layer 1" xmlns="http://www.w3.org/2000/svg" viewBox="0 0 400 190"><defs><style>.cls-1{fill:#d7d7d7;}</style></defs><title>logo bank</title><path class="cls-1" d="M380,5a15,15,0,0,1,15,15V170a15,15,0,0,1-15,15H20A15,15,0,0,1,5,170V20A15,15,0,0,1,20,5H380m0-5H20A20.06,20.06,0,0,0,0,20V170a20.06,20.06,0,0,0,20,20H380a20.06,20.06,0,0,0,20-20V20A20.06,20.06,0,0,0,380,0Z"/><path class="cls-1" d="M217.49,112.92c.29-.5.46-.81.65-1.11q24.06-37.31,48.1-74.63a1.22,1.22,0,0,1,1.73-.6v1.16q0,25.36,0,50.72a3.63,3.63,0,0,1-.54,1.83c-3,4.79-6.1,9.55-9.17,14.32-.21.33-.44.65-.85,1.26V70.49l-.23-.1c-.23.34-.46.68-.69,1q-13,20.22-25.91,40.45a2,2,0,0,1-1.93,1.07C225,112.88,221.36,112.92,217.49,112.92Z"/><path class="cls-1" d="M327.09,39.18v70.37h-9.71V71l-.23-.08c-.23.35-.46.69-.68,1q-11.68,19-23.33,38A1.93,1.93,0,0,1,291.2,111c-3-.06-6,0-9.06,0h-1.34Z"/><path class="cls-1" d="M235.65,49.85c-.28.41-.47.71-.68,1-1.9,2.58-3.82,5.14-5.69,7.75a2.24,2.24,0,0,1-2.07,1.08c-6.89-.05-13.77,0-20.66-.05a1.82,1.82,0,0,0-1.81,1q-15.3,25.77-30.62,51.53a2.07,2.07,0,0,1-2.07,1.2c-4.16-.07-8.32,0-12.7,0,.25-.43.4-.73.59-1q19.73-30.63,39.45-61.27a1.7,1.7,0,0,1,1.59-.89q17.07-.19,34.14-.42A4.4,4.4,0,0,1,235.65,49.85Z"/><path class="cls-1" d="M299.83,153.33c-2.39,0-4.74,0-7.08,0-.2,0-.48-.36-.57-.6a3.22,3.22,0,0,1,0-1q0-11.6,0-23.2v-1.16l-.22,0c-.16.47-.33.93-.48,1.4-2.43,7.83-4.87,15.65-7.27,23.49-.26.84-.58,1.19-1.51,1.15-2-.08-4-.07-6,0a1.24,1.24,0,0,1-1.45-1.09q-3.61-12.1-7.28-24.18a1.84,1.84,0,0,0-.47-.87v1.17c0,7.85,0,15.69,0,23.54,0,1.07-.2,1.51-1.38,1.44-1.91-.11-3.83,0-5.74,0-.63,0-.93-.15-.93-.86q0-16.52,0-33a3.86,3.86,0,0,1,.11-.57h1.17c3.35,0,6.7.06,10.05,0,1.07,0,1.44.37,1.75,1.3,2.21,6.82,4.46,13.62,6.71,20.43.14.44.31.87.54,1.52l3.13-9.74c1.32-4.13,2.67-8.25,3.95-12.4.25-.8.56-1.11,1.43-1.1,3.79,0,7.58,0,11.48,0Z"/><path class="cls-1" d="M260.78,110.92l21.91-34.24.36.09.13,2.47,1-1.46q13-20.25,26-40.51a2.06,2.06,0,0,1,2-1.1c3.53.06,7.07,0,10.82,0-.24.43-.38.74-.57,1L278.7,104c-1.37,2.09-2.66,4.24-4,6.32a1.6,1.6,0,0,1-1.1.67c-4.05,0-8.1,0-12.15,0A4.58,4.58,0,0,1,260.78,110.92Z"/><path class="cls-1" d="M146.74,113.37c0-2.15,0-4.17,0-6.19a2.71,2.71,0,0,1,.58-1.16l28.93-45.47c.19-.31.38-.62.69-1.13h-1.29c-8.77,0-17.53,0-26.3,0-.91,0-1.32-.2-1.58-1.16a3.53,3.53,0,0,1,.44-3.2c.84-1.25,1.49-2.63,2.31-3.89a1.69,1.69,0,0,1,1.18-.7q20.5-.17,41-.26a7.25,7.25,0,0,1,.87.11c-.26.44-.44.78-.65,1.11Q173.05,82,153.17,112.54a1.63,1.63,0,0,1-1.61.84C150,113.34,148.48,113.37,146.74,113.37Z"/><path class="cls-1" d="M128.26,84.37H92.38c.22-.39.37-.69.55-1q14.77-23.13,29.56-46.25c.18-.28.5-.67.77-.68,1.64-.06,3.29,0,5,0Zm-8.9-22.73a1.89,1.89,0,0,0-2.52,1c-2.72,4.46-5.52,8.86-8.29,13.29-.2.33-.4.66-.55.92h11.36Z"/><path class="cls-1" d="M59.66,112.46c0-1.84,0-3.49,0-5.15a2.11,2.11,0,0,1,.42-1Q82.62,71.75,105.17,37.2a1.64,1.64,0,0,1,1.07-.75c3.46-.05,6.93,0,10.39,0a1.78,1.78,0,0,1,.4.13c-.22.38-.41.73-.62,1.05q-24.24,37-48.47,74a1.56,1.56,0,0,1-1.51.84C64.23,112.42,62,112.46,59.66,112.46Z"/><path class="cls-1" d="M54.32,119a1.54,1.54,0,0,1,.33-.1c7.85.06,15.69,0,23.53.24a10.2,10.2,0,0,1,8.18,4.65c2.47,3.58.78,8.54-3.41,10.71-.29.15-.59.28-1.07.5,1.07.43,2,.77,2.89,1.19,4.25,2,6,6.54,4,10.61a9.82,9.82,0,0,1-6.8,5.68,32.5,32.5,0,0,1-6.34.79c-6.78.11-13.56,0-20.34.08-.81,0-1.08-.22-1.08-1.06q0-16.25,0-32.5C54.24,119.55,54.29,119.3,54.32,119Zm8.73,28.36c4.59,0,9,.07,13.49,0a4.19,4.19,0,0,0,4-3.45c.38-2.36-.35-3.71-2.63-4.71a5.6,5.6,0,0,0-2-.55c-4.16-.13-8.32-.18-12.47-.26a1.39,1.39,0,0,0-.4.13Zm0-14.73c2.85,0,5.6.09,8.35,0a29.27,29.27,0,0,0,5.44-.73,3.1,3.1,0,0,0,2.37-3.3c0-2.19-1.76-3.7-4.45-3.73-3.64,0-7.28,0-10.92,0a6.12,6.12,0,0,0-.77.1Z"/><path class="cls-1" d="M133.86,112.37l-.45-75.87h10.94v75.87Z"/><path class="cls-1" d="M260.69,36.42c-.31.52-.47.84-.67,1.14q-24.2,37-48.38,74a2.51,2.51,0,0,1-2.57,1.35c-1.5-.11-3,0-4.53,0-.65,0-1-.17-.91-.86a.73.73,0,0,0,0-.22c-.6-2.94.5-5.28,2.13-7.73q22-33.2,43.87-66.56a2.17,2.17,0,0,1,2.11-1.17C254.64,36.47,257.55,36.42,260.69,36.42Z"/><path class="cls-1" d="M159.58,138.25c6.32,3.4,9.4,9.77,14,14.78l-.15.31h-2.26c-2.25,0-4.49,0-6.74,0a2,2,0,0,1-1.76-.85c-2.47-3.07-5-6.1-7.48-9.15-.26-.31-.55-.6-.79-.92-2.53-3.3-6-3.8-9.89-3.25v14.06h-8.62V119c.3,0,.61-.07.93-.07,6,0,11.93,0,17.9,0,2.2,0,4.41.19,6.61.42,4.13.43,7.7,3.34,8.59,6.9a8.81,8.81,0,0,1-5.32,10.54C163,137.39,161.31,137.74,159.58,138.25ZM144.5,133.3c3.58,0,7.09.06,10.61,0a13.25,13.25,0,0,0,4-.73,3.39,3.39,0,0,0,2.32-3.3,3.58,3.58,0,0,0-2.12-3.67,7.86,7.86,0,0,0-3-.7c-3.56-.08-7.13,0-10.7,0-.36,0-.72,0-1.13.05Z"/><path class="cls-1" d="M154.17,45.15c1.06-1.88,2-3.54,2.94-5.18.68-1.17,1.14-2.75,2.17-3.36s2.57-.19,3.9-.19h82.26a8.85,8.85,0,0,1-.48.84c-1.72,2.3-3.46,4.59-5.15,6.91a1.71,1.71,0,0,1-1.57.76q-41.28.09-82.56.22Z"/><path class="cls-1" d="M128.34,89.54c0,.41.06.81.06,1.2,0,6.78,0,13.56,0,20.34,0,1-.28,1.32-1.3,1.29-2.61-.07-5.22,0-8,0V99.67H118c-7.15,0-14.3,0-21.44,0a1.59,1.59,0,0,0-1.58.87c-2.21,3.7-4.48,7.36-6.7,11a1.59,1.59,0,0,1-1.57.9c-3.79,0-7.59,0-11.38,0-.32,0-.64,0-1.1-.06.21-.39.35-.67.52-.93Q81.51,101,88.29,90.51a1.51,1.51,0,0,1,1.39-.85q19-.08,38-.2A5.82,5.82,0,0,1,128.34,89.54Z"/><path class="cls-1" d="M96.77,153.26V152c0-10.57,0-21.15,0-31.72,0-1.08.22-1.43,1.38-1.43,9.47.05,18.94,0,28.41,0h1.26v5.94H105.33v7.61h1.47c6.08,0,12.16,0,18.24,0,.95,0,1.31.22,1.25,1.23-.09,1.43,0,2.86,0,4.45H105.32v9.28h23.16v5.89Z"/><path class="cls-1" d="M175.91,142l8.36-.46a3,3,0,0,1,.19.4c1,4,4,5.93,8.31,6.05a19.38,19.38,0,0,0,4.69-.46,6.61,6.61,0,0,0,2.69-1.42c2.21-1.86,1.84-4.63-.84-5.72A41.23,41.23,0,0,0,194,139c-3.13-.81-6.27-1.58-9.38-2.45a9.81,9.81,0,0,1-2.39-1.12c-3-1.82-4.94-4.33-4.65-8s2.48-5.91,5.57-7.21a28.1,28.1,0,0,1,7.22-1.85A22.84,22.84,0,0,1,202,119.78a11.46,11.46,0,0,1,5.64,4.44,7.63,7.63,0,0,1,1.22,4.46,5,5,0,0,1-.74.13c-2.25.07-4.49.16-6.74.17-.37,0-1-.28-1.08-.55-.8-2.72-2.77-3.88-5.39-4.16a14.92,14.92,0,0,0-6.66.51,5.36,5.36,0,0,0-2,1.15c-1.11,1.1-.9,2.34.34,3.28,1.93,1.47,4.26,1.73,6.51,2.24,3.94.88,8,1.46,11.61,3.37,4.23,2.22,6,5.63,5.15,10.33-.61,3.55-3,5.76-6.15,7a27.56,27.56,0,0,1-19.87.33C179.19,150.76,176.82,147,175.91,142Z"/><path class="cls-1" d="M346.34,153.33c-3.08,0-6,0-8.88,0-.28,0-.64-.43-.8-.74-1-2-2-4.09-3-6.15a1.17,1.17,0,0,0-1.24-.79q-7.41,0-14.81,0a1.2,1.2,0,0,0-1.29.88c-.86,2-1.81,3.95-2.67,5.94a1.29,1.29,0,0,1-1.39.93c-2.65,0-5.29,0-8.13,0,.19-.47.29-.8.44-1.11q7.7-16.2,15.4-32.4a1.4,1.4,0,0,1,1.48-1c2.43.06,4.86,0,7.29.05a1.57,1.57,0,0,1,1.15.7q8.13,16.48,16.18,33C346.15,152.78,346.2,152.95,346.34,153.33Zm-21.5-26.24-5.45,12.53h11.24Z"/><path class="cls-1" d="M213,153.33c.64-1.36,1.16-2.49,1.7-3.61q7.07-14.85,14.11-29.71a1.67,1.67,0,0,1,1.81-1.16c2.25.07,4.49,0,6.74,0a1.27,1.27,0,0,1,1.33.85q8,16.32,16,32.62c.12.25.21.53.39,1h-2.5c-1.77,0-3.54-.05-5.3,0a1.64,1.64,0,0,1-1.85-1.12c-.87-2-1.89-3.91-2.81-5.87a1.09,1.09,0,0,0-1.15-.75c-5.08,0-10.17,0-15.25,0a1.41,1.41,0,0,0-1,.67c-1,2-1.9,4.15-2.88,6.21-.15.32-.51.76-.77.76C218.75,153.35,216,153.33,213,153.33Zm20.66-26.5-5.57,12.79h11.24Z"/><path class="cls-1" d="M340.92,109.58H332.5V36.28h8.42Z"/><path class="cls-1" d="M273.68,36.43c2.93,0,5.9,0,8.87,0,.19,0,.53.52.54.82.06,1.36,0,2.72,0,4.09,0,8,0,16,0,24a3.8,3.8,0,0,1-.55,1.94c-2.75,4.27-5.56,8.49-8.35,12.73a4.14,4.14,0,0,0-.2.38l-.31-.12Z"/></svg>