<?xml version="1.0" encoding="utf-8"?>
<!-- Generator: Adobe Illustrator 20.1.0, SVG Export Plug-In . SVG Version: 6.00 Build 0)  -->
<svg version="1.1" id="Layer_1" xmlns="http://www.w3.org/2000/svg" xmlns:xlink="http://www.w3.org/1999/xlink" x="0px" y="0px"
	 viewBox="0 0 400 190" enable-background="new 0 0 400 190" xml:space="preserve">
<g>
	<path fill="#D7D7D7" d="M380,5c8.271,0,15,6.729,15,15v150c0,8.271-6.729,15-15,15H20c-8.271,0-15-6.729-15-15V20
		c0-8.271,6.729-15,15-15H380 M380,0H20C9,0,0,9,0,20v150c0,11,9,20,20,20h360c11,0,20-9,20-20V20C400,9,391,0,380,0L380,0z"/>
</g>
<path fill="#8BA1C0" d="M239.989,44.064c-0.809,0.119-1.624,0.115-2.439,0.107c0-0.036,0-0.071-0.001-0.107
	C238.362,44.064,239.175,44.064,239.989,44.064z"/>
<path fill="#8BA0BF" d="M243.593,44.172c-0.815,0.005-1.629,0.012-2.438-0.108c0.813,0,1.626,0,2.44,0
	C243.594,44.1,243.594,44.136,243.593,44.172z"/>
<g>
	<path fill="#D7D7D7" d="M244.997,53.546c4.852,0.384,9.566,1.397,14.13,3.098c0.326,0.122,0.399,0.26,0.34,0.619
		c-0.917,5.593-1.812,11.19-2.711,16.787c-0.098,0.608-0.095,0.613-0.62,0.349c-6.138-3.082-12.654-4.238-19.473-3.753
		c-2.49,0.177-4.884,0.761-7.006,2.171c-0.773,0.514-1.445,1.134-1.979,1.896c-1.3,1.855-1.287,4.048,0.044,5.88
		c0.812,1.117,1.87,1.972,3,2.74c2.724,1.85,5.66,3.325,8.598,4.793c3.808,1.903,7.434,4.077,10.543,7.025
		c3.34,3.167,5.708,6.913,6.325,11.529c0.909,6.802-0.586,13.073-4.684,18.63c-3.339,4.527-7.846,7.522-13.009,9.592
		c-4.446,1.783-9.086,2.736-13.85,3.093c-8.313,0.622-16.471-0.278-24.48-2.57c-1.324-0.379-2.613-0.864-3.888-1.388
		c-0.339-0.139-0.442-0.316-0.381-0.676c0.424-2.525,0.835-5.053,1.244-7.58c0.534-3.294,1.074-6.586,1.583-9.884
		c0.074-0.477,0.222-0.438,0.563-0.27c3.696,1.824,7.48,3.425,11.514,4.351c4.339,0.996,8.739,1.265,13.166,0.905
		c2.379-0.193,4.653-0.846,6.712-2.113c1.146-0.705,2.115-1.595,2.773-2.787c1.288-2.332,0.975-5.03-0.833-7.09
		c-1.288-1.468-2.909-2.509-4.563-3.504c-2.59-1.558-5.375-2.747-8.02-4.201c-3.499-1.923-6.805-4.112-9.601-6.995
		c-2.964-3.056-5.065-6.588-5.611-10.871c-0.548-4.296,0.068-8.458,1.843-12.422c2.426-5.417,6.454-9.34,11.548-12.236
		c4.239-2.41,8.813-3.848,13.617-4.616c1.87-0.299,3.746-0.499,5.634-0.606c0.815,0.008,1.63,0.012,2.439-0.107
		c0.389,0,0.778,0,1.167,0c0.809,0.119,1.624,0.113,2.438,0.108c0.069,0.003,0.139,0.005,0.208,0.008
		c0.146,0.078,0.294,0.106,0.449,0.024c0.094,0.01,0.187,0.021,0.281,0.031C244.626,53.582,244.811,53.576,244.997,53.546z"/>
	<path fill="#D7D7D7" d="M91.301,62.587c-2.093-1.284-4.279-2.395-6.5-3.435c-5.111-2.393-10.413-4.248-15.882-5.633
		c0-0.035,0-0.071,0-0.106c0.218-0.399,0.19-0.853,0.277-1.28c0.048-0.237,0.136-0.347,0.378-0.313
		c0.035,0.005,0.071,0.001,0.106,0.001c11.416,0.002,22.833-0.024,34.249,0.028c2.343,0.011,4.595,0.588,6.454,2.165
		c1.535,1.301,2.377,3.013,2.761,4.949c1.778,8.95,3.534,17.904,5.299,26.857c0.624,3.169,1.25,6.337,1.872,9.506
		c0.04,0.205,0.111,0.411,0.051,0.626c-0.153-0.138-0.176-0.34-0.245-0.516c-0.697-1.775-1.471-3.516-2.331-5.217
		c-4.462-8.835-10.704-16.194-18.5-22.256C96.752,65.986,94.108,64.164,91.301,62.587z"/>
	<path fill="#D7D7D7" d="M254.92,136.994c0.708-1.695,1.386-3.321,2.066-4.947c8.41-20.098,16.82-40.195,25.23-60.293
		c1.438-3.436,2.87-6.874,4.312-10.308c1.757-4.186,4.962-6.349,9.448-6.495c3.709-0.121,7.424-0.048,11.136-0.056
		c2.139-0.005,4.278,0.004,6.417-0.007c0.313-0.002,0.459,0.064,0.531,0.408c1.074,5.187,2.169,10.369,3.254,15.554
		c1.261,6.031,2.514,12.063,3.775,18.094c1.25,5.978,2.508,11.955,3.758,17.933c1.261,6.031,2.518,12.063,3.776,18.094
		c0.808,3.871,1.609,7.744,2.431,11.613c0.078,0.366,0.01,0.442-0.353,0.442c-6.293-0.009-12.587-0.013-18.88,0.005
		c-0.46,0.001-0.452-0.271-0.511-0.553c-0.785-3.75-1.574-7.498-2.344-11.251c-0.082-0.399-0.222-0.533-0.647-0.533
		c-7.372,0.011-14.743,0.003-22.115-0.004c-1.343-0.001-2.687-0.001-4.029-0.036c-0.386-0.01-0.55,0.119-0.678,0.477
		c-1.366,3.824-2.751,7.641-4.123,11.462c-0.098,0.272-0.178,0.436-0.533,0.436c-7.213-0.013-14.425-0.01-21.638-0.011
		C255.132,137.018,255.064,137.007,254.92,136.994z M299.076,77.221c-0.152,0.11-0.166,0.257-0.213,0.387
		c-0.943,2.606-1.875,5.216-2.83,7.817c-2.682,7.308-5.371,14.614-8.071,21.915c-0.164,0.443-0.079,0.514,0.366,0.513
		c5.515-0.013,11.03-0.012,16.545-0.001c0.383,0.001,0.512-0.032,0.417-0.484c-1.574-7.517-3.129-15.038-4.681-22.56
		C300.088,82.286,299.589,79.76,299.076,77.221z"/>
	<path fill="#D7D7D7" d="M91.301,65.587c2.806,1.578,5.451,3.399,7.989,5.373c7.796,6.063,14.038,13.421,18.5,22.256
		c0.859,1.702,1.633,3.443,2.331,5.217c0.069,0.177,0.093,0.378,0.245,0.516l-0.002-0.009c0.001,0.118-0.011,0.241,0.11,0.317
		c0.634,3.203,1.268,6.405,1.901,9.608c0.119,0.6,0.236,1.201,0.354,1.806c0.201-0.052,0.184-0.224,0.229-0.346
		c4.823-12.989,9.643-25.98,14.46-38.971c1.982-5.345,3.962-10.69,5.927-16.041c0.127-0.345,0.289-0.446,0.646-0.444
		c3.04,0.014,6.08,0.012,9.121,0.007c4.118-0.007,8.236-0.013,12.354-0.041c0.487-0.003,0.551,0.088,0.367,0.538
		c-7.063,17.308-14.117,34.621-21.17,51.933c-3.929,9.644-7.861,19.288-11.774,28.939c-0.199,0.49-0.419,0.677-0.979,0.675
		c-7.07-0.023-14.14-0.018-21.211,0.003c-0.47,0.001-0.618-0.16-0.728-0.579c-2.484-9.44-4.981-18.876-7.476-28.313
		c-3.712-14.045-7.425-28.09-11.136-42.136C91.333,65.796,91.321,65.69,91.301,65.587z"/>
	<path fill="#D7D7D7" d="M171.949,136.955c-3.376,0-6.752-0.005-10.127,0.007c-0.381,0.001-0.502-0.041-0.429-0.484
		c1.071-6.515,2.12-13.035,3.173-19.553c0.971-6.013,1.937-12.028,2.908-18.041c1.005-6.222,2.015-12.443,3.02-18.665
		c1.008-6.24,2.012-12.481,3.02-18.721c0.338-2.091,0.689-4.18,1.01-6.274c0.052-0.341,0.177-0.416,0.498-0.415
		c6.787,0.009,13.574,0.011,20.361-0.003c0.424-0.001,0.44,0.155,0.385,0.489c-0.689,4.217-1.37,8.435-2.052,12.652
		c-1.011,6.257-2.021,12.514-3.032,18.771c-1.045,6.466-2.095,12.931-3.139,19.397c-0.903,5.594-1.8,11.19-2.703,16.785
		c-0.737,4.567-1.484,9.131-2.207,13.7c-0.065,0.41-0.297,0.355-0.558,0.355C178.701,136.955,175.325,136.955,171.949,136.955z"/>
</g>
<path fill="#8BA0BF" d="M245.081,44.274c-0.187,0.03-0.371,0.036-0.55-0.039C244.722,44.143,244.904,44.176,245.081,44.274z"/>
<path fill="#8BA0BF" d="M244.25,44.203c-0.154,0.082-0.303,0.054-0.449-0.024C243.953,44.142,244.104,44.136,244.25,44.203z"/>
<path fill="#A0A0A0" d="M120.558,89.985c-0.121-0.076-0.109-0.199-0.11-0.317C120.592,89.737,120.534,89.875,120.558,89.985z"/>
</svg>
