<?xml version="1.0" encoding="UTF-8"?>
<svg width="400px" height="190px" viewBox="0 0 400 190" version="1.1" xmlns="http://www.w3.org/2000/svg" xmlns:xlink="http://www.w3.org/1999/xlink">
    <!-- Generator: Sketch 51.3 (57544) - http://www.bohemiancoding.com/sketch -->
    <title>GoPay</title>
    <desc>Created with Sketch.</desc>
    <defs></defs>
    <g id="GoPay" stroke="none" stroke-width="1" fill="none" fill-rule="evenodd">
        <g id="paypal" fill="#D7D7D7" fill-rule="nonzero">
            <path d="M380,5 C388.3,5 395,11.7 395,20 L395,170 C395,178.3 388.3,185 380,185 L20,185 C11.7,185 5,178.3 5,170 L5,20 C5,11.7 11.7,5 20,5 L380,5 Z M380,0 L20,0 C9,0 0,9 0,20 L0,170 C0,181 9,190 20,190 L380,190 C391,190 400,181 400,170 L400,20 C400,9 391,0 380,0 Z" id="Shape"></path>
            <g id="Logo-Payment-Bank_GOPay" transform="translate(44.000000, 61.000000)">
                <path d="M142.276912,29.3409836 C140.921493,29.1883623 139.568002,29.6430938 138.581524,30.5825215 C137.595045,31.5219491 137.077192,32.8493056 137.167647,34.2065574 L137.167647,49.3540984 C136.938593,51.7347842 138.580975,53.8919169 140.942059,54.3114754 C141.172206,54.9540984 141.724559,54.6786885 142.092794,54.6786885 L165.1075,54.6786885 C166.580441,54.6786885 166.580441,54.6786885 166.580441,56.1934426 C166.580441,59.8655738 166.580441,63.4918033 166.580441,67.1639344 C166.580441,68.1737705 165.751912,68.4491803 165.061471,68.9081967 L108.215147,68.9081967 C107.123583,69.0177561 106.021359,68.876435 104.993088,68.495082 C103.771978,68.0714218 102.90941,66.9782852 102.783676,65.695082 L102.783676,18.4163934 C102.741506,17.8933278 102.9316,17.3781504 103.303689,17.0070937 C103.675779,16.636037 104.19239,16.4464712 104.716912,16.4885246 L164.555147,16.4885246 C165.071951,16.4604675 165.575751,16.6562149 165.937293,17.0255463 C166.298834,17.3948777 166.482931,17.9018493 166.442353,18.4163934 C166.442353,21.4459016 166.442353,24.4754098 166.442353,27.5967213 C166.442353,28.6983607 166.442353,29.0655738 165.061471,29.0655738 C157.926912,29.0655738 150.792353,29.0655738 143.657794,29.0655738 C143.059412,28.9278689 142.691176,28.652459 142.276912,29.3409836 Z" id="Shape"></path>
                <path d="M87.8241176,40.2655738 C87.9450991,44.364539 87.6986292,48.4660875 87.0876471,52.5213115 C86.1538601,60.1070594 80.3647596,66.1966756 72.8185294,67.5311475 C67.3085317,68.8529804 61.5148412,68.3204076 56.34,66.0163934 C51.544987,63.7688715 48.1214603,59.3647813 47.1341176,54.1737705 C46.4207796,51.3985363 46.0498011,48.546848 46.0294118,45.6819672 C45.4457342,39.6372152 45.787186,33.5390982 47.0420588,27.5967213 C48.2266613,22.3109624 51.8940158,17.9189352 56.8923529,15.8 C63.5019216,13.028343 70.967639,13.1114344 77.5135294,16.0295082 C82.0729407,18.1762101 85.4441455,22.2272354 86.7194118,27.0918033 C87.5911734,29.8052706 88.0110044,32.6428926 87.9622059,35.4918033 C87.8701471,37.052459 87.8241176,38.6590164 87.8241176,40.2655738 Z M75.4882353,40.8622951 C75.5603484,38.1815892 75.4681177,35.4989937 75.2120588,32.8295082 C75.2376163,30.2673743 74.0631155,27.8400206 72.0360294,26.2655738 C69.2721594,24.5082641 65.7988829,24.2831278 62.8301471,25.6688525 C60.2193589,26.9838 58.6052555,29.6843893 58.6875,32.6 C58.4115861,35.4830709 58.3193421,38.3806922 58.4113235,41.2754098 C58.2486348,44.8220408 58.5738635,48.3741809 59.3779412,51.8327869 C59.8169734,53.4882827 60.7868546,54.9551858 62.1397059,56.0098361 C64.4508391,57.6719262 67.4619409,58.0172312 70.0910763,56.9216779 C72.7202116,55.8261245 74.5897514,53.4470696 75.0279412,50.6393443 C75.4508393,47.398506 75.6047933,44.1283896 75.4882353,40.8622951 Z" id="Shape"></path>
                <path d="M264.438971,66.2459016 L259.836029,66.2459016 C259.413179,66.311049 258.982019,66.2007089 258.642881,65.9405578 C258.303743,65.6804066 258.086203,65.2931318 258.040882,64.8688525 C257.304412,61.4262295 256.475882,58.0295082 255.785441,54.5868852 C255.785441,53.7147541 255.279118,53.4852459 254.404559,53.5311475 C250.353971,53.5311475 246.257353,53.5311475 242.206765,53.5311475 C241.470294,53.5311475 241.102059,53.5311475 240.963971,54.4491803 C240.273529,57.8 239.491029,61.1508197 238.846618,64.547541 C238.823984,65.0276544 238.603688,65.4771768 238.23774,65.7899755 C237.871793,66.1027743 237.39263,66.2511243 236.913382,66.2 L227.7075,66.2 C226.694853,66.2 226.510735,65.4655738 226.694853,64.6852459 C227.155147,62.6655738 227.661471,60.6918033 228.121765,58.7180328 C230.668725,48.1606557 233.215686,37.5726776 235.762647,26.9540984 C236.222941,24.9344262 236.637206,22.8688525 237.281618,20.8491803 C238.276404,17.0454014 241.589341,14.2953602 245.520882,14.0098361 C247.788196,13.5962094 250.111951,13.5962094 252.379265,14.0098361 C256.369728,14.6861436 259.502544,17.7918861 260.204265,21.7672131 C261.631176,27.642623 263.012059,33.4721311 264.438971,39.3016393 C266.126716,46.9825137 267.90652,54.5868852 269.778382,62.1147541 C270.011015,63.053381 270.195373,64.0032547 270.330735,64.9606557 C270.330735,65.8786885 270.054559,66.3377049 269.087941,66.2918033 L264.438971,66.2459016 Z M248.558824,43.9836066 L252.7475,43.9836066 C253.483971,43.9836066 253.714118,43.9836066 253.53,43.0655738 C252.425294,38.1540984 251.412647,33.242623 250.353971,28.3311475 C250.077794,27.2295082 249.893676,26.0819672 249.6175,24.9803279 C249.341324,23.8786885 249.295294,23.7868852 248.512794,23.7868852 C247.730294,23.7868852 247.684265,24.3377049 247.500147,24.8885246 C247.478589,25.0253904 247.478589,25.1647735 247.500147,25.3016393 L243.633676,43.157377 C243.633676,43.8918033 243.633676,43.9836066 244.324118,43.9377049 L248.558824,43.9836066 Z" id="Shape"></path>
                <path d="M37.9742647,52.9344262 L37.9742647,63.9508197 C37.9742647,65.6491803 37.6980882,66.0163934 36.0870588,66.6131148 C33.9917293,67.2469379 31.8287503,67.6321119 29.6429412,67.7606557 C26.2252895,67.9900958 22.7960341,67.9900958 19.3783824,67.7606557 C14.1044591,67.6458202 9.11038928,65.3715257 5.56955882,61.4721311 C2.9461109,58.42443 1.33758157,54.6388384 0.966617647,50.6393443 C-0.0392842254,43.3040509 0.0848944466,35.8585337 1.33485294,28.5606557 C2.27615061,22.3325938 6.71364081,17.1936841 12.7501471,15.3409836 C17.9417794,13.6485926 23.4557278,13.1772804 28.8604412,13.9639344 C31.4286959,14.1889449 33.980531,14.5721906 36.5013235,15.1114754 C37.5286426,15.2519532 38.283621,16.1435248 38.2504412,17.1770492 C38.3884101,19.5466384 38.3884101,21.9222141 38.2504412,24.2918033 C38.2504412,25.0262295 37.7901471,24.9344262 37.3298529,24.9344262 L26.7891176,24.6590164 L22.1861765,24.6590164 C20.0389629,24.2987738 17.8407243,24.8865138 16.162229,26.2696309 C14.4837337,27.652748 13.4905618,29.6948006 13.4405882,31.8655738 C12.5290518,37.9520398 12.5290518,44.1397635 13.4405882,50.2262295 C13.4643457,52.2106699 14.2874751,54.102189 15.7246686,55.4749567 C17.1618621,56.8477243 19.0923288,57.5863646 21.0814706,57.5245902 C22.3702941,57.5245902 23.6591176,57.5245902 24.9479412,57.5245902 C26.2367647,57.5245902 25.8225,57.5245902 25.8225,56.5606557 L25.8225,41.8721311 C25.8225,39.8983607 26.2827941,39.4393443 28.2160294,39.4393443 C30.1492647,39.4393443 33.0951471,39.4393443 35.5347059,39.4393443 C37.9742647,39.4393443 37.9742647,39.8983607 37.9742647,41.9639344 L37.9742647,52.9344262 Z" id="Shape"></path>
                <path d="M184.992206,41.642623 L184.992206,19.9770492 C184.77927,18.4080522 185.309875,16.8295025 186.428037,15.7054525 C187.546198,14.5814026 189.124829,14.0396087 190.699853,14.2393443 C196.269412,14.2393443 201.792941,14.2393443 207.3625,14.2393443 C212.639213,14.1626407 217.685114,16.393447 221.171324,20.3442623 C222.644786,21.9632426 223.619557,23.9711155 223.979118,26.1278689 C224.646776,29.6000645 224.646776,33.1671486 223.979118,36.6393443 C222.774583,41.3168497 219.328079,45.0974806 214.773235,46.7377049 C211.642138,47.9705605 208.286199,48.5335438 204.922941,48.3901639 L198.478824,48.3901639 C197.650294,48.3901639 197.466176,48.6196721 197.466176,49.4459016 C197.466176,54.3114754 197.466176,59.2229508 197.466176,64.0885246 C197.466176,65.9245902 197.005882,66.3377049 195.210735,66.3377049 L187.753971,66.3377049 C185.590588,66.3377049 184.992206,65.7409836 184.992206,63.5836066 L184.992206,41.642623 Z M197.097941,31.2229508 L197.097941,37.8786885 C197.097941,38.5213115 197.097941,38.842623 197.926471,38.7967213 C200.273971,38.7967213 202.529412,38.7967213 205.015,38.7967213 C209.617941,38.7967213 211.735294,36.8688525 212.333676,32.7377049 C212.381096,32.1572456 212.381096,31.5739019 212.333676,30.9934426 C212.604321,29.1060837 212.001727,27.198192 210.695314,25.806174 C209.388902,24.414156 207.519753,23.6883388 205.613382,23.8327869 C202.989706,23.8327869 200.412059,23.8327869 197.834412,23.8327869 C197.051912,23.8327869 196.913824,24.1081967 196.959853,24.7967213 L197.097941,31.2229508 Z" id="Shape"></path>
                <path d="M286.763235,56.5147541 L286.763235,47.9770492 C286.805032,47.4386296 286.537593,46.9230161 286.072794,46.6459016 C283.955128,45.1809099 282.346578,43.0956006 281.469853,40.6786885 C278.401225,33.4874317 275.332598,26.2502732 272.263971,18.9672131 C272.094002,18.6496397 271.970024,18.3096469 271.895735,17.957377 C271.665588,16.6721311 271.895735,16.1213115 273.368676,16.1213115 C275.823578,16.1213115 278.263137,16.1213115 280.687353,16.1213115 C282.105367,16.0467316 283.386026,16.9616713 283.771324,18.3245902 C285.934706,24.1540984 288.374265,29.9377049 290.399559,35.7213115 C290.591247,36.2427983 290.822047,36.7491483 291.09,37.2360656 C291.826471,38.4754098 292.562941,38.4295082 293.253382,37.2360656 C293.943824,36.042623 294.173971,35.2163934 294.542206,34.2065574 C296.5675,28.9278689 298.592794,23.6491803 300.572059,18.3704918 C300.978698,17.0081837 302.280407,16.1109704 303.702059,16.2131148 C306.049559,16.2131148 308.305,16.2131148 310.698529,16.2131148 C312.355588,16.2131148 312.861912,16.8098361 312.309559,18.4163934 C311.757206,20.0229508 311.250882,21.1704918 310.6525,22.547541 C308.120882,28.652459 305.589265,34.8032787 302.965588,40.9081967 C302.13451,43.3741792 300.518176,45.5018171 298.362647,46.9672131 C297.810294,47.2885246 297.994412,47.7016393 297.994412,48.1147541 C297.994412,53.7606557 297.994412,59.3606557 297.994412,65.0065574 C297.994412,66.842623 297.396029,67.4852459 295.554853,67.4852459 L288.650441,67.4852459 C287.1775,67.4852459 286.487059,66.7967213 286.487059,65.2819672 C286.763235,62.1147541 286.763235,59.4065574 286.763235,56.5147541 Z" id="Shape"></path>
                <path d="M156.223824,33.747541 L169.526324,33.747541 C170.354853,33.747541 170.677059,33.747541 170.631029,34.8491803 C170.631029,39.2557377 170.631029,43.6622951 170.631029,48.0688525 C170.631029,48.9409836 170.354853,49.1704918 169.526324,49.1704918 L142.921324,49.1704918 C142.138824,49.1704918 141.862647,49.1704918 141.862647,48.1147541 C141.862647,43.5245902 141.862647,39.2557377 141.862647,34.8032787 C141.862647,33.9770492 141.862647,33.747541 142.921324,33.747541 L156.223824,33.747541 Z M146.741765,41.4590164 C146.691684,42.2142946 146.977961,42.9531919 147.524265,43.4786885 C148.043849,44.0059551 148.762856,44.2894246 149.503529,44.2590164 C150.824764,44.3413654 152.024192,43.4922329 152.381978,42.2212248 C152.739765,40.9502168 152.158701,39.6026579 150.987513,38.9872841 C149.816324,38.3719103 148.373215,38.6559148 147.524265,39.6688525 C146.979874,40.1765058 146.692656,40.9009814 146.741765,41.642623 L146.741765,41.4590164 Z" id="Shape"></path>
                <path d="M147.294118,3.26885246 L122.162059,10.704918 L128.882353,6.75737705 L139.837353,0.744262295 C141.025822,-0.0850783661 142.607414,-0.0850783661 143.795882,0.744262295 L147.294118,3.26885246 Z" id="Shape"></path>
                <path d="M135.878824,11.6229508 C139.469118,10.3836066 143.059412,9.09836066 146.695735,7.90491803 C148.188499,7.29418096 149.727682,6.80300967 151.298676,6.43606557 C152.139887,6.20843044 153.035032,6.51812899 153.554118,7.21639344 C154.612794,8.50163934 155.533382,9.78688525 156.5,11.0721311 C156.868235,11.5311475 156.960294,11.852459 156.177794,11.852459 L135.924853,11.852459 L135.878824,11.6229508 Z" id="Shape"></path>
            </g>
        </g>
    </g>
</svg>